<?xml version="1.0" encoding="UTF-8" standalone="no"?>
<!-- Created with Inkscape (http://www.inkscape.org/) -->

<svg
   version="1.1"
   id="svg1625"
   width="880"
   height="880"
   viewBox="0 0 880 880"
   sodipodi:docname="full-moon-vector-pdv.svg"
   inkscape:version="1.2 (dc2aedaf03, 2022-05-15)"
   xmlns:inkscape="http://www.inkscape.org/namespaces/inkscape"
   xmlns:sodipodi="http://sodipodi.sourceforge.net/DTD/sodipodi-0.dtd"
   xmlns="http://www.w3.org/2000/svg"
   xmlns:svg="http://www.w3.org/2000/svg">
  <defs
     id="defs1629">
    <clipPath
       clipPathUnits="userSpaceOnUse"
       id="clipPath1647">
      <path
         d="M 0,660 H 660 V 0 H 0 Z"
         id="path1645" />
    </clipPath>
  </defs>
  <sodipodi:namedview
     id="namedview1627"
     pagecolor="#ffffff"
     bordercolor="#000000"
     borderopacity="0.25"
     inkscape:showpageshadow="2"
     inkscape:pageopacity="0.0"
     inkscape:pagecheckerboard="0"
     inkscape:deskcolor="#d1d1d1"
     showgrid="false"
     inkscape:zoom="0.95113636"
     inkscape:cx="441.05137"
     inkscape:cy="440.52569"
     inkscape:window-width="1920"
     inkscape:window-height="1017"
     inkscape:window-x="-8"
     inkscape:window-y="-8"
     inkscape:window-maximized="1"
     inkscape:current-layer="g1633">
    <inkscape:page
       x="0"
       y="0"
       id="page1631"
       width="880"
       height="880" />
  </sodipodi:namedview>
  <g
     id="g1633"
     inkscape:groupmode="layer"
     inkscape:label="Page 1"
     transform="matrix(1.3333333,0,0,-1.3333333,0,880)">
    <path
       d="M 0.629,0.354 H 660 V 660 H 0.629 Z"
       style="fill:#606469;fill-opacity:1;fill-rule:nonzero;stroke:none"
       id="path1635" />
    <g
       id="g1637"
       transform="translate(428.1777,301.5963)">
      <path
         d="M 0,0 -41.405,23.188 -86.123,3.312 -123.388,-28.984 -171.42,0.829 -217.793,-12.422 -264.998,9.11 -286.529,-6.626 -370.998,4.968 -427.549,-20.703 v -280.54 h 659.371 v 283.906 l -33.071,4.915 -47.203,37.267 -40.579,1.655 -24.843,14.078 z"
         style="fill:#54575c;fill-opacity:1;fill-rule:nonzero;stroke:none"
         id="path1639" />
    </g>
    <g
       id="g1641">
      <g
         id="g1643"
         clip-path="url(#clipPath1647)">
        <g
           id="g1649"
           transform="translate(509.5176,362.229)">
          <path
             d="m 0,0 c 73.321,0 133.123,59.801 133.123,133.123 0,73.321 -59.802,133.122 -133.123,133.122 -73.322,0 -133.124,-59.8 -133.124,-133.122 C -133.124,59.801 -73.322,0 0,0"
             style="fill:#747678;fill-opacity:1;fill-rule:evenodd;stroke:none"
             id="path1651" />
        </g>
        <g
           id="g1653"
           transform="translate(509.5176,391.8374)">
          <path
             d="M 0,0 C 57.013,0 103.515,46.5 103.515,103.515 103.515,160.528 57.013,207.03 0,207.03 -57.016,207.03 -103.516,160.528 -103.516,103.515 -103.516,46.5 -57.016,0 0,0"
             style="fill:#adaca3;fill-opacity:1;fill-rule:evenodd;stroke:none"
             id="path1655" />
        </g>
        <g
           id="g1657"
           transform="translate(509.5176,410.0562)">
          <path
             d="m 0,0 c 46.979,0 85.295,38.316 85.295,85.296 0,46.979 -38.316,85.297 -85.295,85.297 -46.979,0 -85.296,-38.318 -85.296,-85.297 C -85.296,38.316 -46.979,0 0,0"
             style="fill:#e3ddb1;fill-opacity:1;fill-rule:evenodd;stroke:none"
             id="path1659" />
        </g>
        <g
           id="g1661"
           transform="translate(495.2559,485.2168)">
          <path
             d="M 0,0 C 8.5,0 15.433,6.933 15.433,15.433 15.433,23.931 8.5,30.862 0,30.862 -8.498,30.862 -15.433,23.931 -15.433,15.433 -15.433,6.933 -8.498,0 0,0"
             style="fill:#b8b393;fill-opacity:1;fill-rule:evenodd;stroke:none"
             id="path1663" />
        </g>
        <g
           id="g1665"
           transform="translate(502.3457,486.9385)">
          <path
             d="m 0,0 c -2.123,-1.1 -4.534,-1.721 -7.089,-1.721 -8.523,0 -15.433,6.907 -15.433,15.43 0,4.187 1.669,7.98 4.373,10.761 2.122,1.1 4.533,1.722 7.089,1.722 8.522,0 15.431,-6.91 15.431,-15.432 C 4.371,6.575 2.705,2.779 0,0"
             style="fill:#a39e7c;fill-opacity:1;fill-rule:evenodd;stroke:none"
             id="path1667" />
        </g>
        <g
           id="g1669"
           transform="translate(459.209,477.5474)">
          <path
             d="M 0,0 C 6.201,0 11.26,5.059 11.26,11.26 11.26,17.463 6.201,22.521 0,22.521 -6.202,22.521 -11.26,17.463 -11.26,11.26 -11.26,5.059 -6.202,0 0,0"
             style="fill:#b8b393;fill-opacity:1;fill-rule:evenodd;stroke:none"
             id="path1671" />
        </g>
        <g
           id="g1673"
           transform="translate(464.3818,478.8037)">
          <path
             d="m 0,0 c -1.549,-0.802 -3.308,-1.256 -5.173,-1.256 -6.218,0 -11.26,5.042 -11.26,11.26 0,3.054 1.215,5.823 3.189,7.851 1.549,0.803 3.308,1.257 5.174,1.257 6.218,0 11.259,-5.043 11.259,-11.26 C 3.189,4.797 1.974,2.029 0,0"
             style="fill:#a39e7c;fill-opacity:1;fill-rule:evenodd;stroke:none"
             id="path1675" />
        </g>
        <g
           id="g1677"
           transform="translate(462.7705,518.4116)">
          <path
             d="m 0,0 c 4.259,0 7.732,3.474 7.732,7.732 0,4.259 -3.473,7.732 -7.732,7.732 -4.258,0 -7.731,-3.473 -7.731,-7.732 C -7.731,3.474 -4.258,0 0,0"
             style="fill:#b8b393;fill-opacity:1;fill-rule:evenodd;stroke:none"
             id="path1679" />
        </g>
        <g
           id="g1681"
           transform="translate(466.3232,519.2744)">
          <path
             d="m 0,0 c -1.065,-0.551 -2.273,-0.863 -3.553,-0.863 -4.268,0 -7.73,3.463 -7.73,7.732 0,2.097 0.834,3.998 2.19,5.391 1.062,0.553 2.27,0.863 3.55,0.863 4.272,0 7.733,-3.461 7.733,-7.731 C 2.19,3.295 1.354,1.393 0,0"
             style="fill:#a39e7c;fill-opacity:1;fill-rule:evenodd;stroke:none"
             id="path1683" />
        </g>
        <g
           id="g1685"
           transform="translate(594.2637,485.6797)">
          <path
             d="m 0,0 c -4.802,-42.553 -40.91,-75.623 -84.746,-75.623 -47.109,0 -85.297,38.188 -85.297,85.295 0,13.915 3.334,27.053 9.244,38.657 -0.357,-3.176 -0.549,-6.401 -0.549,-9.672 0,-47.108 38.19,-85.297 85.297,-85.297 33.192,0 61.953,18.96 76.051,46.64"
             style="fill:#d9d3a3;fill-opacity:1;fill-rule:evenodd;stroke:none"
             id="path1687" />
        </g>
        <g
           id="g1689"
           transform="translate(520.0049,424.8906)">
          <path
             d="M 0,0 C 12.518,0 22.731,10.211 22.731,22.731 22.731,35.251 12.518,45.462 0,45.462 -12.52,45.462 -22.732,35.251 -22.732,22.731 -22.732,10.211 -12.52,0 0,0"
             style="fill:#b8b393;fill-opacity:1;fill-rule:evenodd;stroke:none"
             id="path1691" />
        </g>
        <g
           id="g1693"
           transform="translate(530.4463,427.4272)">
          <path
             d="m 0,0 c -3.126,-1.621 -6.679,-2.536 -10.441,-2.536 -12.554,0 -22.731,10.176 -22.731,22.73 0,6.164 2.453,11.755 6.439,15.85 3.128,1.62 6.677,2.535 10.441,2.535 C -3.737,38.579 6.44,28.403 6.44,15.849 6.44,9.684 3.985,4.094 0,0"
             style="fill:#a39e7c;fill-opacity:1;fill-rule:evenodd;stroke:none"
             id="path1695" />
        </g>
        <g
           id="g1697"
           transform="translate(469.5615,436.8887)">
          <path
             d="M 0,0 C 6.2,0 11.259,5.059 11.259,11.26 11.259,17.463 6.2,22.521 0,22.521 -6.201,22.521 -11.26,17.463 -11.26,11.26 -11.26,5.059 -6.201,0 0,0"
             style="fill:#b8b393;fill-opacity:1;fill-rule:evenodd;stroke:none"
             id="path1699" />
        </g>
        <g
           id="g1701"
           transform="translate(474.7334,438.146)">
          <path
             d="m 0,0 c -1.549,-0.802 -3.307,-1.256 -5.174,-1.256 -6.217,0 -11.259,5.04 -11.259,11.259 0,3.055 1.217,5.823 3.19,7.852 1.549,0.803 3.306,1.256 5.174,1.256 C -1.852,19.111 3.19,14.069 3.19,7.85 3.19,4.797 1.975,2.028 0,0"
             style="fill:#a39e7c;fill-opacity:1;fill-rule:evenodd;stroke:none"
             id="path1703" />
        </g>
        <g
           id="g1705"
           transform="translate(529.9053,570.6714)">
          <path
             d="m 0,0 c 20.56,0 40.954,-16.666 45.554,-37.226 4.6,-20.558 -8.337,-37.225 -28.895,-37.225 -20.56,0 -40.955,16.667 -45.554,37.225 C -33.495,-16.666 -20.559,0 0,0"
             style="fill:#f0ecd1;fill-opacity:1;fill-rule:evenodd;stroke:none"
             id="path1707" />
        </g>
        <g
           id="g1709"
           transform="translate(660.3525,183.1758)">
          <path
             d="m 0,0 -41.083,-14.906 -28.156,31.468 -56.312,-4.967 -41.406,-23.188 -23.186,43.063 -71.22,34.779 -56.313,-41.405 -74.53,21.532 -57.968,-21.532 -34.782,8.281 -72.874,-34.78 -57.968,9.936 -43.926,-23.334 V -182.822 H 0 Z"
             style="fill:#36393d;fill-opacity:1;fill-rule:evenodd;stroke:none"
             id="path1711" />
        </g>
        <g
           id="g1713"
           transform="translate(298.7388,384.4077)">
          <path
             d="M 0,0 32.347,65.01 -0.999,22.24 -6.655,148.286 41.871,275.67 H 24.478 l -33.235,-80.573 -3.616,80.573 h -29.812 l -2.395,-60.054 -32.8,60.054 h -12.422 l 44.573,-76.328 -16.832,-422.105 72.876,-18.217 z m 238.749,-113.338 -56.098,81.458 56.132,-60.095 0.592,367.645 h 26.501 l 4.371,-89.733 44.902,89.733 h 9.11 l -52.705,-116.601 19.993,-410.402 -53.001,13.25 z m -487.964,-140.892 12.055,214.287 -22.405,51.954 23.521,-32.128 8.545,151.897 -53.598,143.89 h 16.562 l 39.138,-106.539 5.994,106.539 h 29.812 l 2.006,-94.262 43.127,94.262 h 10.767 l -53.07,-132.947 8.764,-411.859 z"
             style="fill:#36393d;fill-opacity:1;fill-rule:evenodd;stroke:none"
             id="path1715" />
        </g>
        <g
           id="g1717"
           transform="translate(359.3037,484.835)">
          <path
             d="m 0,0 c -4.748,-8.31 -7.879,-17.59 -9.262,-27.314 1.479,1.832 3.336,3.407 5.535,4.598 8.917,4.833 20.064,1.521 24.896,-7.397 0.586,-1.082 1.051,-2.198 1.402,-3.33 0.904,5.388 4.19,10.32 9.366,13.124 8.415,4.56 18.816,1.866 24.022,-5.947 l 10e-4,10e-4 h 10e-4 c -3.704,8.628 -0.282,18.813 8.133,23.372 5.176,2.805 11.102,2.866 16.108,0.681 -0.758,0.912 -1.437,1.911 -2.023,2.994 -4.833,8.917 -1.521,20.064 7.397,24.896 2.197,1.19 4.531,1.886 6.873,2.126 v 0.002 c -8.902,4.148 -18.386,6.591 -27.941,7.153 -0.45,-7.084 -4.427,-13.785 -11.126,-17.417 -4.533,-2.455 -9.56,-3.1 -14.253,-2.18 -0.504,-1.757 -1.686,-3.317 -3.42,-4.257 -1.735,-0.94 -3.688,-1.078 -5.436,-0.541 C 28.482,6.131 25.197,2.271 20.665,-0.187 13.964,-3.817 6.181,-3.488 0,0"
             style="fill:#3f4245;fill-opacity:1;fill-rule:evenodd;stroke:none"
             id="path1719" />
        </g>
        <g
           id="g1721"
           transform="translate(146.8223,468.6138)">
          <path
             d="m 0,0 c -5.483,0.378 -11.063,-0.32 -16.435,-2.035 v -10e-4 c 1.315,-0.306 2.594,-0.873 3.76,-1.711 4.726,-3.403 5.798,-9.994 2.395,-14.72 -0.414,-0.573 -0.875,-1.093 -1.372,-1.557 3.012,0.879 6.382,0.412 9.124,-1.563 4.46,-3.212 5.665,-9.262 2.927,-13.905 v -0.002 c 3.535,4.071 9.656,4.846 14.116,1.635 2.743,-1.974 4.254,-5.024 4.375,-8.158 0.282,0.619 0.63,1.22 1.042,1.794 3.405,4.725 9.993,5.799 14.719,2.394 1.164,-0.838 2.108,-1.871 2.815,-3.021 h 0.002 c -0.078,5.638 -1.183,11.152 -3.28,16.232 -3.775,-1.537 -8.233,-1.156 -11.785,1.402 -2.401,1.73 -3.99,4.168 -4.687,6.823 -1.035,-0.177 -2.137,0.043 -3.056,0.705 -0.92,0.662 -1.478,1.637 -1.637,2.675 -2.738,-0.181 -5.556,0.552 -7.958,2.282 C 1.515,-8.173 -0.26,-4.068 0,0"
             style="fill:#43474a;fill-opacity:1;fill-rule:evenodd;stroke:none"
             id="path1723" />
        </g>
        <g
           id="g1725"
           transform="translate(355.8564,344.4438)">
          <path
             d="m 0,0 c -11.568,-6.265 -21.958,-14.834 -30.621,-25.189 v 0 c 3.055,1.067 6.367,1.561 9.798,1.358 13.92,-0.823 24.538,-12.772 23.718,-26.692 -0.101,-1.689 -0.366,-3.331 -0.778,-4.909 4.962,5.64 12.377,9.018 20.456,8.54 13.135,-0.774 23.33,-11.463 23.745,-24.363 h 0.002 0.003 c 1.929,12.762 13.311,22.176 26.448,21.401 8.078,-0.475 15.043,-4.701 19.306,-10.885 -0.222,1.616 -0.293,3.276 -0.192,4.965 0.82,13.919 12.772,24.538 26.691,23.718 3.432,-0.203 6.662,-1.082 9.571,-2.501 l 0.001,0.001 c -7.388,11.302 -16.698,21.033 -27.448,28.615 -5.666,-7.946 -15.165,-12.891 -25.626,-12.275 -7.075,0.419 -13.415,3.312 -18.227,7.788 -1.864,-1.685 -4.376,-2.653 -7.085,-2.494 -2.706,0.161 -5.087,1.415 -6.74,3.309 -5.306,-3.878 -11.941,-6.006 -19.016,-5.589 C 13.545,-14.584 4.692,-8.558 0,0"
             style="fill:#202224;fill-opacity:1;fill-rule:evenodd;stroke:none"
             id="path1727" />
        </g>
        <g
           id="g1729"
           transform="translate(660.3525,121.6885)">
          <path
             d="M 0,0 V -121.335 H -659.724 V 20.734 c 1.029,-5.762 1.966,-11.556 2.808,-17.383 1.951,20.37 5.101,40.741 9.509,61.112 -0.086,-27.389 1.1,-54.547 3.87,-81.42 0.883,20.761 0.789,41.83 -0.167,63.165 2.534,-10.647 4.746,-21.268 6.621,-31.857 -0.042,14.987 -0.452,29.96 -1.217,44.92 3.992,-18.618 6.981,-37.588 8.998,-56.901 1.998,11.769 4.418,23.574 7.235,35.413 -1.636,-36.557 -0.752,-72.33 3.264,-107.124 3.042,31.442 3.607,63.659 2.138,96.511 2.817,-11.839 5.236,-23.646 7.237,-35.414 2.015,19.314 5.004,38.284 8.996,56.901 -1.865,-36.474 -1.624,-73.025 0.931,-109.664 5.865,37.716 8.299,76.056 8.176,114.857 4.41,-20.374 7.56,-40.746 9.51,-61.119 1.714,11.836 3.805,23.54 6.284,35.108 -2.065,-40.43 -1.545,-80.952 1.844,-121.583 0.509,2.678 0.997,5.365 1.465,8.055 0.724,20.414 3.071,40.826 7.158,61.239 1.607,25.151 1.72,50.767 0.556,76.782 3.307,-13.901 6.068,-27.758 8.243,-41.564 1.258,4.193 2.591,8.386 4.003,12.58 -0.779,-9.196 -1.407,-18.351 -1.887,-27.469 0.16,-1.261 0.313,-2.522 0.464,-3.781 1.895,14.77 4.43,29.544 7.627,44.312 -0.091,-28.523 1.203,-56.798 4.222,-84.76 2.182,24.098 3.125,48.419 3.046,72.924 3.648,-16.852 6.432,-33.704 8.39,-50.556 1.049,27.368 0.83,54.691 -0.563,81.967 3.992,-18.619 6.982,-37.589 8.997,-56.9 1.999,11.767 4.419,23.572 7.237,35.412 -1.637,-36.56 -0.753,-72.329 3.264,-107.122 3.041,31.441 3.607,63.656 2.137,96.508 2.818,-11.839 5.238,-23.646 7.236,-35.412 2.016,19.313 5.006,38.282 8.997,56.9 -1.864,-36.475 -1.624,-73.027 0.93,-109.665 5.865,37.717 8.301,76.057 8.176,114.857 4.41,-20.373 7.56,-40.746 9.512,-61.119 1.711,11.838 3.803,23.54 6.285,35.109 -2.068,-40.429 -1.547,-80.953 1.842,-121.583 0.51,2.679 0.997,5.363 1.464,8.055 0.726,20.412 3.073,40.826 7.16,61.239 1.606,25.15 1.72,50.766 0.555,76.782 3.308,-13.904 6.07,-27.758 8.242,-41.565 1.258,4.194 2.592,8.387 4.005,12.58 -0.779,-9.195 -1.407,-18.35 -1.887,-27.468 4.406,-34.794 4.955,-69.256 0.947,-103.319 0.055,-0.754 0.111,-1.506 0.167,-2.259 6.334,51.794 7.895,103.411 5.263,154.874 3.993,-18.618 6.983,-37.589 8.999,-56.902 1.999,11.769 4.418,23.572 7.235,35.412 -1.469,-32.851 -0.904,-65.066 2.139,-96.506 4.016,34.793 4.898,70.563 3.263,107.121 2.819,-11.84 5.237,-23.646 7.236,-35.412 2.016,19.312 5.005,38.284 8.998,56.899 -1.395,-27.276 -1.612,-54.599 -0.565,-81.967 1.958,16.852 4.743,33.703 8.392,50.556 -0.08,-24.505 0.862,-48.826 3.045,-72.923 3.022,27.962 4.313,56.236 4.221,84.761 3.199,-14.771 5.733,-29.543 7.629,-44.315 0.148,1.26 0.304,2.521 0.462,3.782 -0.479,9.119 -1.108,18.274 -1.885,27.469 1.411,-4.193 2.745,-8.385 4.002,-12.58 2.175,13.806 4.935,27.662 8.245,41.565 -1.165,-26.016 -1.053,-51.632 0.554,-76.782 4.087,-20.414 6.434,-40.826 7.157,-61.239 0.47,-2.691 0.957,-5.378 1.466,-8.056 3.388,40.63 3.911,81.155 1.844,121.583 2.478,-11.566 4.57,-23.272 6.285,-35.108 1.95,20.374 5.1,40.746 9.51,61.118 -0.124,-38.801 2.311,-77.138 8.176,-114.856 2.553,36.638 2.796,73.191 0.93,109.665 3.993,-18.617 6.982,-37.588 8.998,-56.903 1.998,11.77 4.417,23.576 7.234,35.414 -1.467,-32.851 -0.904,-65.067 2.139,-96.507 4.016,34.791 4.9,70.563 3.263,107.122 2.82,-11.839 5.237,-23.645 7.237,-35.414 2.017,19.314 5.005,38.285 8.999,56.901 -0.768,-14.96 -1.175,-29.933 -1.219,-44.921 1.875,10.59 4.087,21.211 6.621,31.859 -0.953,-21.339 -1.05,-42.408 -0.166,-63.173 2.768,26.875 3.956,54.035 3.868,81.427 0.233,-1.077 0.463,-2.154 0.688,-3.229 -0.099,2.237 -0.206,4.477 -0.32,6.717 3.992,-18.618 6.983,-37.588 8.998,-56.902 1.997,11.77 4.418,23.575 7.236,35.414 -1.635,-36.558 -0.752,-72.329 3.262,-107.121 3.044,31.442 3.609,63.656 2.14,96.505 2.817,-11.838 5.237,-23.643 7.235,-35.412 2.017,19.314 5.005,38.283 8.998,56.903 -1.865,-36.475 -1.622,-73.028 0.931,-109.668 5.864,37.719 8.3,76.058 8.175,114.858 4.41,-20.372 7.559,-40.744 9.51,-61.118 1.714,11.837 3.807,23.541 6.286,35.108 -2.067,-40.428 -1.546,-80.953 1.843,-121.582 0.51,2.678 0.998,5.362 1.465,8.056 0.725,20.412 3.072,40.825 7.158,61.238 1.608,25.149 1.72,50.765 0.555,76.781 3.309,-13.903 6.07,-27.759 8.243,-41.563 1.258,4.193 2.593,8.387 4.004,12.58 -0.778,-9.195 -1.406,-18.354 -1.886,-27.472 0.158,-1.259 0.313,-2.519 0.463,-3.78 1.896,14.771 4.43,29.544 7.627,44.314 -0.09,-28.524 1.201,-56.798 4.223,-84.76 2.183,24.097 3.124,48.417 3.046,72.921 3.646,-16.85 6.431,-33.704 8.389,-50.553 1.048,27.367 0.832,54.69 -0.564,81.967 3.993,-18.62 6.981,-37.588 8.998,-56.902 1.999,11.769 4.417,23.575 7.236,35.412 -1.635,-36.556 -0.752,-72.328 3.264,-107.12 3.043,31.441 3.607,63.656 2.139,96.506 2.816,-11.84 5.236,-23.643 7.234,-35.412 2.017,19.311 5.007,38.283 8.997,56.902 -1.864,-36.475 -1.623,-73.028 0.931,-109.667 5.863,37.719 8.301,76.057 8.177,114.858 4.409,-20.373 7.558,-40.745 9.509,-61.118 1.714,11.836 3.806,23.54 6.286,35.108 -2.069,-40.429 -1.547,-80.953 1.842,-121.583 0.51,2.678 0.998,5.363 1.466,8.057 0.724,20.411 3.071,40.824 7.156,61.237 1.609,25.15 1.721,50.767 0.558,76.782 3.308,-13.902 6.067,-27.759 8.242,-41.563 1.258,4.193 2.592,8.386 4.004,12.58 -0.778,-9.196 -1.408,-18.354 -1.887,-27.47 4.407,-34.796 4.956,-69.256 0.948,-103.319 0.054,-0.753 0.11,-1.507 0.168,-2.259 6.333,51.795 7.894,103.41 5.264,154.873 3.989,-18.618 6.981,-37.589 8.995,-56.9 1.999,11.767 4.418,23.571 7.237,35.412 -1.47,-32.852 -0.905,-65.067 2.137,-96.508 4.016,34.792 4.901,70.563 3.265,107.122 2.817,-11.84 5.236,-23.645 7.236,-35.412 2.016,19.311 5.005,38.282 8.997,56.9 -1.394,-27.277 -1.611,-54.599 -0.562,-81.968 1.956,16.851 4.741,33.704 8.389,50.553 -0.078,-24.504 0.865,-48.823 3.045,-72.921 3.021,27.963 4.314,56.237 4.223,84.762 3.196,-14.772 5.733,-29.541 7.626,-44.314 0.151,1.26 0.305,2.52 0.465,3.779 -0.481,9.119 -1.108,18.276 -1.887,27.471 1.411,-4.193 2.744,-8.386 4.003,-12.58 2.174,13.805 4.935,27.661 8.243,41.564 -1.165,-26.015 -1.053,-51.632 0.555,-76.781 4.087,-20.413 6.433,-40.826 7.159,-61.239 0.467,-2.691 0.955,-5.377 1.464,-8.055 3.389,40.63 3.91,81.154 1.843,121.582 C -3.358,19.797 -1.546,9.945 0,0"
             style="fill:#202224;fill-opacity:1;fill-rule:evenodd;stroke:none"
             id="path1731" />
        </g>
      </g>
    </g>
  </g>
</svg>
