<?xml version="1.0" encoding="UTF-8"?>
<svg id="_Слой_2" data-name="Слой 2" xmlns="http://www.w3.org/2000/svg" viewBox="0 0 1678.91 925.06">
  <defs>
    <style>
      .cls-1 {
        font-size: 12.71px;
      }

      .cls-1, .cls-2, .cls-3, .cls-4, .cls-5, .cls-6, .cls-7 {
        font-family: MyriadPro-Regular, 'Myriad Pro';
      }

      .cls-2 {
        font-size: 13.24px;
      }

      .cls-3 {
        font-size: 12.45px;
      }

      .cls-8 {
        letter-spacing: .02em;
      }

      .cls-9 {
        letter-spacing: .02em;
      }

      .cls-10 {
        letter-spacing: .02em;
      }

      .cls-11, .cls-12 {
        fill: #979797;
      }

      .cls-4 {
        font-size: 11px;
      }

      .cls-5 {
        font-size: 12px;
      }

      .cls-12 {
        stroke: #000;
        stroke-miterlimit: 10;
      }

      .cls-6 {
        font-size: 17.1px;
      }

      .cls-13 {
        letter-spacing: 0em;
      }

      .cls-14 {
        letter-spacing: 0em;
      }

      .cls-15 {
        letter-spacing: 0em;
      }

      .cls-7 {
        font-size: 8.07px;
      }

      .cls-16 {
        letter-spacing: 0em;
      }
    </style>
  </defs>
  <rect class="cls-12" x="3.5" y="25.5" width="7" height="198"/>
  <rect class="cls-12" x="10.5" y="216.5" width="179" height="7"/>
  <rect class="cls-12" x="10.5" y="25.5" width="267" height="7"/>
  <rect class="cls-12" x="270.5" y="32.5" width="7" height="336"/>
  <rect class="cls-12" x="214.5" y="361.5" width="56" height="7"/>
  <rect class="cls-12" x="120.5" y="223.5" width="7" height="520"/>
  <rect class="cls-12" x="42.5" y="743.5" width="147" height="7"/>
  <rect class="cls-12" x="42.5" y="750.5" width="7" height="153"/>
  <rect class="cls-12" x="49.5" y="896.5" width="235" height="7"/>
  <rect class="cls-12" x="277.5" y="569.5" width="7" height="327"/>
  <g>
    <rect class="cls-11" x="215" y="563" width="445.5" height="6"/>
    <path d="M660,563.5v5H215.5v-5h444.5m1-1H214.5v7h446.5v-7h0Z"/>
  </g>
  <rect class="cls-12" x="217.5" y="401.5" width="468" height="7"/>
  <rect class="cls-12" x="257.5" y="368.5" width="7" height="33"/>
  <rect class="cls-12" x="10.5" y="150.5" width="179" height="3"/>
  <rect class="cls-12" x="10.5" y="122.5" width="179" height="3"/>
  <rect class="cls-12" x="111.5" y="32.5" width="3" height="90"/>
  <rect class="cls-12" x="186.5" y="32.5" width="3" height="90"/>
  <rect class="cls-12" x="85.5" y="125.5" width="3" height="25"/>
  <rect class="cls-12" x="214.5" y="53.5" width="3" height="69"/>
  <rect class="cls-12" x="217.5" y="119.5" width="53" height="3"/>
  <rect class="cls-12" x="189.5" y="87.5" width="25" height="3"/>
  <rect class="cls-12" x="217.5" y="53.5" width="53" height="3"/>
  <rect class="cls-12" x="111.5" y="153.5" width="3" height="63"/>
  <rect class="cls-12" x="146.5" y="153.5" width="3" height="34"/>
  <rect class="cls-12" x="186.5" y="154.5" width="3" height="62"/>
  <rect class="cls-12" x="214.5" y="151.5" width="55" height="3"/>
  <rect class="cls-12" x="214.5" y="122.5" width="3" height="29"/>
  <rect class="cls-12" x="214.5" y="154.5" width="3" height="207"/>
  <rect class="cls-12" x="217.5" y="214.5" width="52" height="3"/>
  <rect class="cls-12" x="186.5" y="223.5" width="3" height="520"/>
  <rect class="cls-12" x="127.5" y="641.5" width="58" height="3"/>
  <rect class="cls-12" x="128.5" y="605.5" width="58" height="3"/>
  <rect class="cls-12" x="127.5" y="571.5" width="58" height="3"/>
  <rect class="cls-12" x="128.5" y="533.5" width="58" height="3"/>
  <rect class="cls-12" x="127.5" y="467.5" width="58" height="3"/>
  <rect class="cls-12" x="127.5" y="430.5" width="58" height="3"/>
  <rect class="cls-12" x="128.5" y="395.5" width="58" height="3"/>
  <rect class="cls-12" x="127.5" y="361.5" width="58" height="3"/>
  <rect class="cls-12" x="128.5" y="327.5" width="58" height="3"/>
  <rect class="cls-12" x="186.5" y="750.5" width="3" height="61"/>
  <rect class="cls-12" x="217.5" y="747.5" width="60" height="3"/>
  <rect class="cls-12" x="217.5" y="605.5" width="60" height="3"/>
  <text class="cls-6" transform="translate(37.16 80.73) scale(.9 1)"><tspan x="0" y="0">1-319а</tspan></text>
  <text class="cls-6" transform="translate(123.88 80.59) scale(.9 1)"><tspan x="0" y="0">1-319</tspan></text>
  <text class="cls-6" transform="translate(24.88 142.59) scale(.9 1)"><tspan x="0" y="0">1-319б</tspan></text>
  <text class="cls-6" transform="translate(38.6 191.59) scale(.9 1)"><tspan x="0" y="0">1-320</tspan></text>
  <text class="cls-6" transform="translate(192.23 48.53) scale(.9 1)"><tspan x="0" y="0">1-317а</tspan></text>
  <text class="cls-6" transform="translate(224.23 92.53) scale(.9 1)"><tspan x="0" y="0">1-317</tspan></text>
  <text class="cls-6" transform="translate(226.23 189.53) scale(.9 1)"><tspan x="0" y="0">1-315</tspan></text>
  <text class="cls-6" transform="translate(226.03 277.96) scale(.9 1)"><tspan x="0" y="0">1-313</tspan></text>
  <text class="cls-6" transform="translate(137.03 277.96) scale(.9 1)"><tspan x="0" y="0">1-323</tspan></text>
  <text class="cls-6" transform="translate(137.81 351.14) scale(.9 1)"><tspan x="0" y="0">1-325</tspan></text>
  <text class="cls-6" transform="translate(135.81 385.14) scale(.9 1)"><tspan x="0" y="0">1-326</tspan></text>
  <text class="cls-6" transform="translate(137.1 420.52) scale(.9 1)"><tspan x="0" y="0">1-326а</tspan></text>
  <text class="cls-6" transform="translate(137.1 455.52) scale(.9 1)"><tspan x="0" y="0">1-326в</tspan></text>
  <text class="cls-6" transform="translate(132.67 510.13) scale(.9 1)"><tspan x="0" y="0">1-326Б</tspan></text>
  <text class="cls-6" transform="translate(137.67 557.13) scale(.9 1)"><tspan x="0" y="0">1-327а</tspan></text>
  <rect class="cls-12" x="214.5" y="369.5" width="3" height="107"/>
  <rect class="cls-12" x="214.5" y="501.5" width="3" height="61"/>
  <rect class="cls-12" x="214.5" y="569.5" width="3" height="327" transform="translate(432 1466) rotate(180)"/>
  <rect class="cls-12" x="50.5" y="836.5" width="164" height="3"/>
  <rect class="cls-12" x="185.5" y="839.5" width="3" height="57"/>
  <rect class="cls-12" x="49.5" y="808.5" width="139" height="3"/>
  <rect class="cls-12" x="96.5" y="751.5" width="3" height="57"/>
  <rect class="cls-12" x="145.5" y="750.5" width="3" height="58"/>
  <text class="cls-6" transform="translate(138.1 596.54) scale(.9 1)"><tspan x="0" y="0">1-327</tspan></text>
  <text class="cls-6" transform="translate(137.1 629.54) scale(.9 1)"><tspan x="0" y="0">1-328</tspan></text>
  <text class="cls-6" transform="translate(137.1 695.54) scale(.9 1)"><tspan x="0" y="0">1-330</tspan></text>
  <text class="cls-6" transform="translate(148.1 785.54) scale(.9 1)"><tspan x="0" y="0">1-331</tspan></text>
  <text class="cls-6" transform="translate(90.1 867.54) scale(.9 1)"><tspan x="0" y="0">1-333</tspan></text>
  <text class="cls-7" transform="translate(192.1 862.98)"><tspan x="0" y="0">1-333а</tspan></text>
  <text class="cls-6" transform="translate(233.1 831.54) scale(.9 1)"><tspan x="0" y="0">1-336</tspan></text>
  <text class="cls-6" transform="translate(226.1 684.54) scale(.9 1)"><tspan x="0" y="0">1-338а</tspan></text>
  <text class="cls-6" transform="translate(231.1 592.54) scale(.9 1)"><tspan x="0" y="0">1-340</tspan></text>
  <g>
    <rect class="cls-11" x="660.5" y="501.5" width="6" height="83"/>
    <path d="M666,502v82h-5v-82h5m1-1h-7v84h7v-84h0Z"/>
  </g>
  <rect class="cls-12" x="285.5" y="504.5" width="3" height="58"/>
  <rect class="cls-12" x="398.5" y="504.5" width="3" height="58"/>
  <rect class="cls-12" x="433.5" y="504.5" width="3" height="58"/>
  <rect class="cls-12" x="467.5" y="504.5" width="3" height="58"/>
  <rect class="cls-12" x="493.5" y="504.5" width="3" height="58"/>
  <rect class="cls-12" x="536.5" y="504.5" width="3" height="58"/>
  <rect class="cls-12" x="568.5" y="504.5" width="3" height="58"/>
  <rect class="cls-12" x="621.5" y="504.5" width="3" height="58"/>
  <rect class="cls-12" x="678.5" y="408.5" width="7" height="68"/>
  <rect class="cls-12" x="218.5" y="501.5" width="442" height="3"/>
  <rect class="cls-12" x="217.5" y="473.5" width="461" height="3"/>
  <rect class="cls-12" x="290.5" y="408.5" width="3" height="65"/>
  <rect class="cls-12" x="440.5" y="408.5" width="3" height="65"/>
  <rect class="cls-12" x="478.5" y="408.5" width="3" height="65"/>
  <rect class="cls-12" x="621.5" y="408.5" width="3" height="65"/>
  <rect class="cls-12" x="666.5" y="577.5" width="350" height="7"/>
  <rect class="cls-12" x="1009.5" y="501.5" width="7" height="76"/>
  <rect class="cls-12" x="666.5" y="501.5" width="343" height="3"/>
  <rect class="cls-12" x="739.5" y="504.5" width="3" height="73"/>
  <rect class="cls-12" x="795.5" y="504.5" width="3" height="73"/>
  <rect class="cls-12" x="685.5" y="433.5" width="299" height="3"/>
  <rect class="cls-12" x="743.5" y="346.5" width="7" height="87"/>
  <rect class="cls-12" x="743.5" y="339.5" width="182" height="7"/>
  <rect class="cls-12" x="918.5" y="346.5" width="7" height="87"/>
  <rect class="cls-12" x="1016.5" y="557.5" width="433" height="7"/>
  <rect class="cls-12" x="1446.5" y="501.5" width="3" height="56"/>
  <rect class="cls-12" x="1016.5" y="501.5" width="430" height="3"/>
  <rect class="cls-12" x="1052.5" y="504.5" width="3" height="53"/>
  <rect class="cls-12" x="1122.5" y="504.5" width="3" height="53"/>
  <rect class="cls-12" x="1158.5" y="504.5" width="3" height="53"/>
  <rect class="cls-12" x="1194.5" y="504.5" width="3" height="53"/>
  <rect class="cls-12" x="1229.5" y="504.5" width="3" height="53"/>
  <rect class="cls-12" x="1266.5" y="504.5" width="3" height="53"/>
  <rect class="cls-12" x="1337.5" y="504.5" width="3" height="53"/>
  <rect class="cls-12" x="1375.5" y="504.5" width="3" height="53"/>
  <rect class="cls-12" x="1406.5" y="504.5" width="3" height="53"/>
  <rect class="cls-12" x="983.5" y="397.5" width="7" height="39"/>
  <rect class="cls-12" x="990.5" y="397.5" width="459" height="7"/>
  <rect class="cls-12" x="987.5" y="436.5" width="3" height="40"/>
  <rect class="cls-12" x="990.5" y="473.5" width="459" height="3"/>
  <rect class="cls-12" x="1446.5" y="404.5" width="3" height="69"/>
  <rect class="cls-12" x="1375.5" y="404.5" width="3" height="69"/>
  <rect class="cls-12" x="1229.5" y="404.5" width="3" height="69"/>
  <rect class="cls-12" x="1193.5" y="404.5" width="3" height="69"/>
  <rect class="cls-12" x="1157.5" y="404.5" width="3" height="69"/>
  <rect class="cls-12" x="1053.5" y="404.5" width="3" height="69"/>
  <rect class="cls-12" x="1378.5" y="12.5" width="7" height="344"/>
  <rect class="cls-12" x="1385.5" y="349.5" width="64" height="7"/>
  <rect class="cls-12" x="1401.5" y="356.5" width="7" height="41"/>
  <rect class="cls-12" x="1446.5" y="356.5" width="3" height="41"/>
  <rect class="cls-12" x="1474.5" y="350.5" width="3" height="461"/>
  <rect class="cls-12" x="1446.5" y="118.5" width="3" height="231"/>
  <rect class="cls-12" x="1474.5" y="115.5" width="179" height="3"/>
  <rect class="cls-12" x="1474.5" y="143.5" width="179" height="3"/>
  <rect class="cls-12" x="1385.5" y="12.5" width="275" height="7"/>
  <rect class="cls-12" x="1653.5" y="19.5" width="7" height="194"/>
  <rect class="cls-12" x="1474.5" y="206.5" width="179" height="7"/>
  <rect class="cls-12" x="1474.5" y="213.5" width="3" height="137"/>
  <rect class="cls-12" x="1474.5" y="146.5" width="3" height="60"/>
  <rect class="cls-12" x="1474.5" y="19.5" width="3" height="96"/>
  <rect class="cls-12" x="1446.5" y="19.5" width="3" height="99"/>
  <rect class="cls-12" x="1385.5" y="115.5" width="61" height="3"/>
  <rect class="cls-12" x="1385.5" y="143.5" width="61" height="3"/>
  <rect class="cls-12" x="1385.5" y="175.5" width="61" height="3"/>
  <rect class="cls-12" x="1385.5" y="208.5" width="61" height="3"/>
  <rect class="cls-12" x="1385.5" y="315.5" width="61" height="3"/>
  <rect class="cls-12" x="1477.5" y="318.5" width="60" height="3"/>
  <rect class="cls-12" x="1477.5" y="358.5" width="60" height="3"/>
  <rect class="cls-12" x="1537.5" y="213.5" width="7" height="535"/>
  <rect class="cls-12" x="1510.5" y="146.5" width="3" height="60"/>
  <rect class="cls-12" x="1582.5" y="146.5" width="3" height="60"/>
  <rect class="cls-12" x="1618.5" y="146.5" width="3" height="60"/>
  <rect class="cls-12" x="1548.5" y="19.5" width="3" height="96"/>
  <rect class="cls-12" x="1616.5" y="19.5" width="3" height="96"/>
  <rect class="cls-12" x="1385.5" y="84.5" width="61" height="3"/>
  <rect class="cls-12" x="1378.5" y="564.5" width="7" height="339"/>
  <rect class="cls-12" x="1385.5" y="896.5" width="234" height="7"/>
  <rect class="cls-12" x="1612.5" y="748.5" width="7" height="148"/>
  <rect class="cls-12" x="1544.5" y="741.5" width="75" height="7"/>
  <rect class="cls-12" x="1446.5" y="564.5" width="3" height="332"/>
  <rect class="cls-12" x="1385.5" y="845.5" width="61" height="3"/>
  <rect class="cls-12" x="1385.5" y="746.5" width="61" height="3"/>
  <rect class="cls-12" x="1385.5" y="673.5" width="61" height="3"/>
  <rect class="cls-12" x="1477.5" y="389.5" width="60" height="3"/>
  <rect class="cls-12" x="1477.5" y="426.5" width="60" height="3"/>
  <rect class="cls-12" x="1477.5" y="460.5" width="60" height="3"/>
  <rect class="cls-12" x="1477.5" y="495.5" width="60" height="3"/>
  <rect class="cls-12" x="1477.5" y="532.5" width="60" height="3"/>
  <rect class="cls-12" x="1477.5" y="568.5" width="60" height="3"/>
  <rect class="cls-12" x="1477.5" y="603.5" width="60" height="3"/>
  <rect class="cls-12" x="1477.5" y="639.5" width="60" height="3"/>
  <rect class="cls-12" x="1477.5" y="674.5" width="60" height="3"/>
  <rect class="cls-12" x="1477.5" y="745.5" width="60" height="3"/>
  <rect class="cls-12" x="1477.5" y="808.5" width="134" height="3"/>
  <rect class="cls-12" x="1507.5" y="748.5" width="3" height="60"/>
  <rect class="cls-12" x="1530.5" y="748.5" width="3" height="60"/>
  <rect class="cls-12" x="1576.5" y="748.5" width="3" height="60"/>
  <rect class="cls-12" x="1449.5" y="836.5" width="163" height="3"/>
  <rect class="cls-12" x="1472.5" y="839.5" width="3" height="57"/>
  <rect class="cls-12" x="1518.5" y="839.5" width="3" height="57"/>
  <rect class="cls-12" x="149.5" y="184.5" width="37" height="3"/>
  <text class="cls-6" transform="translate(120.43 207.78) scale(.9 1)"><tspan x="0" y="0">1-321</tspan></text>
  <text class="cls-3" transform="translate(150.43 172.89) scale(.97 1)"><tspan x="0" y="0">1-321а</tspan></text>
  <text class="cls-6" transform="translate(227.96 538.5) scale(.9 1)"><tspan x="0" y="0">1-341</tspan></text>
  <text class="cls-6" transform="translate(318.96 538.5) scale(.9 1)"><tspan x="0" y="0">1-340</tspan></text>
  <text class="cls-5" transform="translate(109.82 780.54)"><tspan x="0" y="0">с/у</tspan></text>
  <text class="cls-5" transform="translate(229.11 389.05)"><tspan x="0" y="0">с/у</tspan></text>
  <text class="cls-1" transform="translate(220.25 437.82) scale(.81 1)"><tspan x="0" y="0">Ле</tspan><tspan class="cls-10" x="13.91" y="0">с</tspan><tspan class="cls-14" x="19.81" y="0">т</tspan><tspan x="24.94" y="0">ница/ли</tspan><tspan class="cls-16" x="69.87" y="0">ф</tspan><tspan x="77.96" y="0">т</tspan></text>
  <text class="cls-4" transform="translate(223.8 138.25) scale(.98 1)"><tspan x="0" y="0">Ле</tspan><tspan class="cls-8" x="12.04" y="0">с</tspan><tspan class="cls-15" x="17.14" y="0">т</tspan><tspan x="21.59" y="0">ница</tspan></text>
  <text class="cls-2" transform="translate(55.13 780.69) scale(.68 1)"><tspan x="0" y="0">Ле</tspan><tspan class="cls-9" x="14.5" y="0">с</tspan><tspan class="cls-13" x="20.64" y="0">т</tspan><tspan x="25.99" y="0">ница</tspan></text>
</svg>