<?xml version="1.0" encoding="utf-8"?>
<!-- Generator: Adobe Illustrator 27.0.0, SVG Export Plug-In . SVG Version: 6.00 Build 0)  -->
<svg version="1.1" id="Слой_1" xmlns="http://www.w3.org/2000/svg" xmlns:xlink="http://www.w3.org/1999/xlink" x="0px" y="0px"
	 viewBox="0 0 1678.9 925.1" style="enable-background:new 0 0 1678.9 925.1;" xml:space="preserve">
<style type="text/css">
	.st0{fill:#ffffff;stroke:#000000;stroke-miterlimit:10;}
	.st1{fill:#979797;stroke:#000000;stroke-miterlimit:10;}
	.st2{fill:#979797;}
	.st3{font-family:'ArialMT';}
	.st4{font-size:17.1px;}
	.st5{font-size:8.07px;}
	.st6{font-size:12.45px;}
	.st7{font-size:12px;}
	.st8{font-size:12.71px;}
	.st9{font-size:11px;}
	.st10{font-size:13.24px;}

	.path{fill:#222976;}
	/* .aud{fill:#922c2c; fill-opacity:  1;} */

	.start{fill:#922c2c; opacity: 0.4;}
	.end{fill:green; opacity: 0.4;}

	/* .st0{fill:#1FE2FF;stroke:#000000;stroke-miterlimit:10;} */
	.st1{fill:#979797;stroke:#000000;stroke-miterlimit:10;}
	.st2{fill:#979797;}
	.st3{font-family:'ArialMT';}
	.st4{font-size:7.7952px;}
	.st5{font-size:7.3136px;}
	.st6{font-size:7.5814px;}
	.st7{font-size:9.7416px;}
	.st8{font-size:10.8468px;}
	.st9{font-size:11.4696px;}
	.st10{font-size:9.6165px;}
	.st11{font-size:9.7649px;}
	.st12{font-size:9.7729px;}
	.st13{font-size:11.413px;}
	.st14{font-size:8.1875px;}
	.st15{font-size:9.8768px;}
	.st16{font-size:7.3656px;}
	.st17{font-size:10.525px;}
	.st18{font-size:8.4162px;}
	.st19{font-size:7.4765px;}
	.st20{font-size:8.7058px;}
	.st21{font-size:7.825px;}
	.st22{font-size:7.3564px;}
	.st23{font-size:6.3118px;}
	.st24{font-size:8.5695px;}
	.st25{font-size:7.5612px;}
	.st26{font-size:4.8835px;}
	.st27{font-size:8.882px;}
	.st28{font-size:9.0289px;}
	.st29{font-size:11.8556px;}
	.st30{font-size:9.9414px;}
	.st31{font-size:10.1078px;}
	.st32{font-size:9.5679px;}
	.st33{font-size:8.3542px;}
	.st34{font-size:8.9536px;}
	.st35{font-size:10.8264px;}
	.st36{font-size:9.1963px;}
	.st37{font-size:10.8566px;}
	.st38{font-size:6.8529px;}
	.st39{font-size:9.8097px;}
	.st40{font-size:9.7331px;}
	.st41{font-size:9.7763px;}
	.st42{font-size:8.9848px;}
	.st43{font-size:8.4205px;}
	.st44{font-size:10.1082px;}
	.st45{font-size:9.183px;}
	.st46{font-size:9.3333px;}
	.st47{font-size:8.5424px;}
	.st48{font-size:8.4764px;}
	.st49{font-size:9.7305px;}
	.st50{font-size:8.8954px;}
	.st51{font-size:11.0225px;}
	.st52{font-size:7.7699px;}
	.st53{font-size:8.2666px;}
	.st54{font-size:16.8217px;}
	.st55{font-size:6.9933px;}
	.st56{font-size:10.1874px;}
	.st57{enable-background:new    ;}
	.st58{font-size:9.1576px;}
	.st59{font-size:6.9711px;}
	.st60{font-size:7.1435px;}
	.st61{font-size:5.0737px;}
	.st62{font-size:10.5522px;}
	.st63{font-size:9.1002px;}
	.st64{font-size:9.1355px;}
	.st65{font-size:10.945px;}
	.st66{font-size:10.108px;}
	.st67{font-size:8.7535px;}
	.st68{font-size:10.3902px;}
	.st69{font-size:8.1197px;}
	.st70{font-size:9.6264px;}
	.st71{font-size:9.5154px;}
	.st72{font-size:7.4263px;}
	.st73{fill:#979797;stroke:#000000;stroke-width:1;stroke-miterlimit:10.0002;}
	.st74{font-size:8.9394px;}
	.st75{font-size:9.389px;}
</style>
<g id="Слой_2_00000013167293274023752980000018160513616036727993_">
	<rect class="st0" width="1678.9" height="925.1"/>
</g>
<g id="Слой_1_00000153699026064774283320000006926203741397764996_">
	<g id="_Слой_2">
		<rect x="3.5" y="25.5" class="st1" width="7" height="198"/>
		<rect x="10.5" y="216.5" class="st1" width="179" height="7"/>
		<rect x="10.5" y="25.5" class="st1" width="267" height="7"/>
		<rect x="270.5" y="32.5" class="st1" width="7" height="336"/>
		<rect x="214.5" y="361.5" class="st1" width="56" height="7"/>
		<rect x="120.5" y="223.5" class="st1" width="7" height="520"/>
		<rect x="42.5" y="743.5" class="st1" width="147" height="7"/>
		<rect x="42.5" y="750.5" class="st1" width="7" height="153"/>
		<rect x="49.5" y="896.5" class="st1" width="235" height="7"/>
		<rect x="277.5" y="569.5" class="st1" width="7" height="327"/>
		<g>
			<rect x="214.4" y="563" class="st2" width="446.1" height="6"/>
			<path d="M660,563.5v5H214.9v-5H660 M661,562.5H213.9v7H661V562.5L661,562.5z"/>
		</g>
		<rect x="217.5" y="401.5" class="st1" width="468" height="7"/>
		<rect x="257.5" y="368.5" class="st1" width="7" height="33"/>
		<rect x="10.5" y="119.5" class="st1" width="204" height="3"/>
		<rect x="186.5" y="32.5" class="st1" width="3" height="87"/>
		<rect x="214.5" y="32.5" class="st1" width="3" height="90"/>
		<rect x="217.5" y="119.5" class="st1" width="53" height="3"/>
		<rect x="186.5" y="122.5" class="st1" width="3" height="94"/>
		<rect x="214.5" y="151.5" class="st1" width="56" height="3"/>
		<rect x="214.5" y="122.5" class="st1" width="3" height="29"/>
		<rect x="214.5" y="154.5" class="st1" width="3" height="207"/>
		<rect x="217.5" y="282" class="st1" width="53" height="3"/>
		<rect x="186.5" y="223.5" class="st1" width="3" height="520"/>
		<rect x="127.5" y="640.6" class="st1" width="59" height="3"/>
		<rect x="128.5" y="397" class="st1" width="58" height="3"/>
		<rect x="127.2" y="363.5" class="st1" width="58" height="3"/>
		<rect x="186.5" y="750.5" class="st1" width="3" height="61"/>
		<rect x="217.5" y="747.5" class="st1" width="60" height="3"/>
		<text transform="matrix(0.9 0 0 1 76.12 72.8678)" class="st3 st4">Второй свет</text>
		<text transform="matrix(0.9 0 0 1 40.5798 169.5)" class="st3 st5">1-121</text>
		<text transform="matrix(0.8306 0 0 1 236.0308 47.1924)" class="st3 st6">1-119</text>
		<text transform="matrix(0.9 0 0 1 233.6476 106.5687)" class="st3 st7">1-117</text>
		<text transform="matrix(0.9 0 0 1 231.5728 218.8588)" class="st3 st8">1-115</text>
		<text transform="matrix(0.9 0 0 1 143.4326 296.3313)" class="st3 st9">1-123</text>
		<text transform="matrix(0.9 0 0 1 145.5 382.8226)" class="st3 st10">1-124</text>
		<text transform="matrix(0.9 0 0 1 145.293 482.1855)" class="st3 st11">1-126</text>
		<rect x="214.5" y="369.5" class="st1" width="3" height="107"/>
		<rect x="214.5" y="501.5" class="st1" width="3" height="61"/>
		<rect x="214.5" y="569.5" class="st1" width="3" height="327"/>
		<rect x="50.5" y="836.5" class="st1" width="164" height="3"/>
		<rect x="172.5" y="839.5" class="st1" width="3" height="57"/>
		<rect x="49.5" y="808.5" class="st1" width="139" height="3"/>
		<rect x="96.5" y="751.5" class="st1" width="3" height="57"/>
		<rect x="145.5" y="750.5" class="st1" width="3" height="58"/>
		<text transform="matrix(0.9 0 0 1 144.3574 522.0266)" class="st3 st12">1-127</text>
		<text transform="matrix(0.9 0 0 1 145.5 693.5112)" class="st3 st13">1-130</text>
		<text transform="matrix(0.9 0 0 1 58.7063 868.7764)" class="st3 st14">1-133б</text>
		<text transform="matrix(0.5644 0 0 1 186.5 868.875)" class="st3 st15">1-133а</text>
		<g>
			<rect x="660.5" y="501.5" class="st2" width="6" height="83"/>
			<path d="M666,502v82h-5v-82H666 M667,501h-7v84h7V501L667,501z"/>
		</g>
		<rect x="476.6" y="504.5" class="st1" width="3" height="58.3"/>
		<rect x="678.5" y="415.8" class="st1" width="7" height="60.7"/>
		<rect x="217.5" y="501.5" class="st1" width="443" height="3"/>
		<rect x="217.5" y="473.5" class="st1" width="461" height="3"/>
		<rect x="290.5" y="408.5" class="st1" width="3" height="65"/>
		<rect x="453" y="408.5" class="st1" width="3" height="65"/>
		<rect x="625.8" y="408.5" class="st1" width="3" height="65"/>
		<rect x="666.5" y="577.5" class="st1" width="350" height="7"/>
		<rect x="1009.5" y="501.5" class="st1" width="7" height="76"/>
		<rect x="666.5" y="501.5" class="st1" width="343" height="3"/>
		<rect x="685.5" y="433.5" class="st1" width="299" height="3"/>
		<rect x="743.5" y="346.5" class="st1" width="7" height="87"/>
		<rect x="743.5" y="339.5" class="st1" width="182" height="7"/>
		<rect x="918.5" y="346.5" class="st1" width="7" height="87"/>
		<rect x="1016.5" y="557.5" class="st1" width="369" height="7"/>
		<rect x="1446.5" y="501.5" class="st1" width="3" height="63"/>
		<rect x="1016.5" y="501.5" class="st1" width="430" height="3"/>
		<rect x="1193.5" y="504.5" class="st1" width="3" height="53"/>
		<rect x="1335.7" y="504.5" class="st1" width="3" height="53"/>
		<rect x="1382.6" y="504.5" class="st1" width="3" height="53"/>
		<rect x="983.5" y="397.5" class="st1" width="7" height="39"/>
		<rect x="990.5" y="397.5" class="st1" width="459" height="7"/>
		<rect x="987.5" y="436.5" class="st1" width="3" height="40"/>
		<rect x="990.5" y="473.5" class="st1" width="459" height="3"/>
		<rect x="1446.5" y="404.5" class="st1" width="3" height="69"/>
		<rect x="1379" y="404.6" class="st1" width="3" height="69"/>
		<rect x="1193.5" y="404.5" class="st1" width="3" height="69"/>
		<rect x="1378.5" y="12.5" class="st1" width="7" height="344"/>
		<rect x="1385.5" y="349.5" class="st1" width="64" height="7"/>
		<rect x="1401.5" y="356.5" class="st1" width="7" height="41"/>
		<rect x="1446.5" y="356.5" class="st1" width="3" height="41"/>
		<rect x="1474.5" y="350.5" class="st1" width="3" height="461"/>
		<rect x="1446.5" y="118.5" class="st1" width="3" height="231"/>
		<rect x="1474.5" y="115.5" class="st1" width="179" height="3"/>
		<rect x="1385.5" y="12.5" class="st1" width="275" height="7"/>
		<rect x="1653.5" y="19.5" class="st1" width="7" height="194"/>
		<rect x="1474.5" y="206.5" class="st1" width="179" height="7"/>
		<rect x="1474.5" y="213.5" class="st1" width="3" height="137"/>
		<rect x="1474.5" y="146.5" class="st1" width="3" height="60"/>
		<rect x="1474.5" y="19.5" class="st1" width="3" height="96"/>
		<rect x="1446.5" y="19.5" class="st1" width="3" height="99"/>
		<rect x="1385.5" y="117" class="st1" width="61" height="3"/>
		<rect x="1385.5" y="143.5" class="st1" width="61" height="3"/>
		<rect x="1385.1" y="294.6" class="st1" width="61" height="3"/>
		<rect x="1478.3" y="296.1" class="st1" width="60" height="3"/>
		<rect x="1537.5" y="213.5" class="st1" width="7" height="535"/>
		<rect x="1513.5" y="131" class="st1" width="3" height="75.5"/>
		<rect x="1378.5" y="564.5" class="st1" width="7" height="339"/>
		<rect x="1385.5" y="896.5" class="st1" width="234" height="7"/>
		<rect x="1612.5" y="748.5" class="st1" width="7" height="148"/>
		<rect x="1544.5" y="741.5" class="st1" width="75" height="7"/>
		<rect x="1446.5" y="564.5" class="st1" width="3" height="332"/>
		<rect x="1477.5" y="394.5" class="st1" width="60" height="3"/>
		<rect x="1478.3" y="430.1" class="st1" width="60" height="3"/>
		<rect x="1478.4" y="503" class="st1" width="60" height="3"/>
		<rect x="1477.5" y="579.5" class="st1" width="60" height="3"/>
		<rect x="1477.5" y="703.3" class="st1" width="60" height="3"/>
		<rect x="1477.5" y="745.5" class="st1" width="60" height="3"/>
		<rect x="1477.5" y="808.5" class="st1" width="134" height="3"/>
		<rect x="1512.3" y="748.5" class="st1" width="3" height="60"/>
		<rect x="1582" y="748.5" class="st1" width="3" height="60"/>
		<rect x="1449.5" y="836.5" class="st1" width="163" height="3"/>
		<rect x="1551.6" y="839.5" class="st1" width="3" height="57"/>
		<text transform="matrix(0.8247 0 0 1 108.2205 189.9)" class="st3 st16">1-122</text>
		<text transform="matrix(0.7509 0 0 1 110.8527 145.6911)" class="st3 st17">1-120</text>
		<text transform="matrix(0.9 0 0 1 228.8833 537)" class="st3 st18">1-141</text>
		<text transform="matrix(0.9 0 0 1 361.2577 533.65)" class="st3 st19">1-143</text>
		<text transform="matrix(1.0266 0 0 1 116.8223 778.6342)" class="st3 st20">с/у</text>
		<text transform="matrix(1 0 0 1 232.2979 385.8677)" class="st3 st21">с/у</text>
		<text transform="matrix(0.81 0 0 1 235.0835 441)" class="st3 st22">Ле</text>
		<text transform="matrix(0.81 0 0 1 241.605 441)" class="st3 st22">с</text>
		<text transform="matrix(0.81 0 0 1 244.3706 441)" class="st3 st22">т</text>
		<text transform="matrix(0.81 0 0 1 246.7759 441)" class="st3 st22">ница/ли</text>
		<text transform="matrix(0.81 0 0 1 267.8394 441)" class="st3 st22">ф</text>
		<text transform="matrix(0.81 0 0 1 271.6323 441)" class="st3 st22">т</text>
		<text transform="matrix(0.98 0 0 1 231.5171 137.9993)" class="st3 st23">Ле</text>
		<text transform="matrix(0.98 0 0 1 238.2876 137.9993)" class="st3 st23">с</text>
		<text transform="matrix(0.98 0 0 1 241.1553 137.9993)" class="st3 st23">т</text>
		<text transform="matrix(0.98 0 0 1 243.6577 137.9993)" class="st3 st23">ница</text>
		<text transform="matrix(0.68 0 0 1 58.6541 779.1205)" class="st3 st24">Ле</text>
		<text transform="matrix(0.68 0 0 1 65.0364 779.1205)" class="st3 st24">с</text>
		<text transform="matrix(0.68 0 0 1 67.7385 779.1205)" class="st3 st24">т</text>
		<text transform="matrix(0.68 0 0 1 70.093 779.1205)" class="st3 st24">ница</text>
		<text transform="matrix(0.9 0 0 1 301.0835 441.7266)" class="st3 st25">1-110</text>
		<rect x="476.6" y="408.5" class="st1" width="3" height="65"/>
		<text transform="matrix(0.8484 0 0 1 461.7515 442.0811)" class="st3 st26">1-106</text>
		<text transform="matrix(0.7641 0 0 1 556.2166 532.9824)" class="st3 st27">Музей</text>
		<text transform="matrix(0.7641 0 0 1 818.8732 386.8304)" class="st3 st28">Лестница</text>
		<text transform="matrix(0.7641 0 0 1 1081.4797 439.1)" class="st3 st29">1-199</text>
		<rect x="1230" y="404.5" class="st1" width="3" height="69"/>
		<text transform="matrix(0.7641 0 0 1 1202.6617 438.8164)" class="st3 st30">1-194</text>
		<text transform="matrix(0.7641 0 0 1 1256.9991 532.9824)" class="st3 st31">1-157а</text>
		<text transform="matrix(0.7641 0 0 1 1272.6979 441)" class="st3 st32">1-193а</text>
		<text transform="matrix(0.7641 0 0 1 1350.5564 439.7852)" class="st3 st31">1-193</text>
		<text transform="matrix(0.7641 0 0 1 1351.3904 532.9824)" class="st3 st33">1-158</text>
		<text transform="matrix(0.6796 0 0 1 1392.34 442.5908)" class="st3 st34">Лестница/лифт</text>
		<text transform="matrix(0.7641 0 0 1 1406.6295 635.6514)" class="st3 st31">1-161</text>
		<text transform="matrix(0.7641 0 0 1 1404.4828 817.0488)" class="st3 st31">1-165</text>
		<rect x="1385.5" y="745.5" class="st1" width="61" height="3"/>
		<text transform="matrix(0.7641 0 0 1 1511.0654 872.3086)" class="st3 st35">1-167</text>
		<text transform="matrix(0.7641 0 0 1 1485.8604 783.5)" class="st3 st36">1-169</text>
		<text transform="matrix(0.7641 0 0 1 1544.5 783.1396)" class="st3 st37">с/y</text>
		<text transform="matrix(0.5384 0 0 1 1591.3412 781.3298)" class="st3 st38">Лестница</text>
		<text transform="matrix(0.7641 0 0 1 1497.0488 564.5)" class="st3 st39">1-174</text>
		<text transform="matrix(0.7641 0 0 1 1498.623 526.0137)" class="st3 st40">1-175</text>
		<text transform="matrix(0.7641 0 0 1 1497.7812 491.5215)" class="st3 st41">1-176</text>
		<text transform="matrix(0.7641 0 0 1 1497.0488 414.8877)" class="st3 st42">1-177/1</text>
		<text transform="matrix(0.7641 0 0 1 1499.3174 316.0454)" class="st3 st43">1-177/4</text>
		<text transform="matrix(0.7641 0 0 1 1496.9482 251.8916)" class="st3 st44">1-177/5</text>
		<text transform="matrix(0.7641 0 0 1 1423.4774 377.624)" class="st3 st45">с/у</text>
		<text transform="matrix(0.7641 0 0 1 1404.4828 322.9019)" class="st3 st44">1-188а</text>
		<text transform="matrix(0.7641 0 0 1 1405 253.0827)" class="st3 st44">1-188</text>
		<text transform="matrix(0.7641 0 0 1 1406.6705 165.9607)" class="st3 st46">1-183</text>
		<text transform="matrix(0.5384 0 0 1 1406.6295 133.2031)" class="st3 st47">Лестница</text>
		<text transform="matrix(0.7641 0 0 1 1555.1078 69)" class="st3 st44">1-184а</text>
		<rect x="1385.5" y="180.1" class="st1" width="61" height="3"/>
		<text transform="matrix(0.7641 0 0 1 1485.8604 181.6)" class="st3 st48">1-178</text>
		<text transform="matrix(0.7641 0 0 1 1404.4828 104.1455)" class="st3 st49">1-182</text>
		<rect x="95.5" y="189.9" class="st1" width="3" height="26.6"/>
		<text transform="matrix(0.9 0 0 1 146.6094 590.1835)" class="st3 st50">1-129</text>
		<rect x="217.5" y="640.6" class="st1" width="60" height="3"/>
		<text transform="matrix(0.9 0 0 1 236.0308 697.8734)" class="st3 st51">1-139</text>
		<rect x="290.5" y="504.5" class="st1" width="3" height="58.3"/>
		<rect x="592.6" y="408.5" class="st1" width="3" height="65"/>
		<text transform="matrix(0.8484 0 0 1 527.7004 441.6387)" class="st3 st52">1-105</text>
		<text transform="matrix(0.9 0 0 1 601.0239 441.7871)" class="st3 st53">1-103</text>
		<text transform="matrix(0.8484 0 0 1 812.5696 539.5)" class="st3 st54">Выход</text>
		<text transform="matrix(0.8484 0 0 1 636.2451 441.8174)" class="st3 st55">1-102</text>
		<rect x="217.5" y="87.3" class="st1" width="53" height="3"/>
		<rect x="132.4" y="164.7" class="st1" width="3" height="51.8"/>
		<rect x="98.5" y="161.7" class="st1" width="42.5" height="3"/>
		<rect x="126.7" y="497" class="st1" width="59" height="3"/>
		<rect x="127.5" y="567.5" class="st1" width="59" height="3"/>
		<rect x="91.1" y="839.5" class="st1" width="3" height="57"/>
		<text transform="matrix(0.9 0 0 1 238.2876 609.6517)" class="st3 st56">1-140</text>
		<text transform="matrix(0.9 0 0 1 238.2876 817.0488)" class="st57"><tspan x="0" y="0" class="st3 st58">Второй</tspan><tspan x="0" y="11" class="st3 st58">свет</tspan></text>
		<text transform="matrix(0.9 0 0 1 118.1133 866.5127)" class="st3 st59">Второй свет</text>
		<rect x="451.5" y="504.5" class="st1" width="3" height="58.3"/>
		<rect x="419.1" y="408.8" class="st1" width="3" height="64.7"/>
		<text transform="matrix(0.9 0 0 1 429.0161 443.0674)" class="st3 st60">1-108</text>
		<rect x="327.1" y="408.7" class="st1" width="3" height="64.8"/>
		<text transform="matrix(0.9 0 0 1 365.061 441.6387)" class="st3 st25">1-109</text>
		<rect x="658.5" y="408.5" class="st1" width="3" height="65"/>
		<text transform="matrix(0.8484 0 0 1 664.627 441.7266)" class="st3 st61">1-101</text>
		<text transform="matrix(0.9 0 0 1 231.5171 326.063)" class="st3 st62">1-113</text>
		<rect x="127.5" y="461" class="st1" width="59" height="3"/>
		<text transform="matrix(0.9 0 0 1 146.2422 414.8877)" class="st3 st63">1-125</text>
		<rect x="127.5" y="426.9" class="st1" width="59" height="3"/>
		<text transform="matrix(0.9 0 0 1 143.4326 445.498)" class="st3 st64">1-126а</text>
		<text transform="matrix(0.7641 0 0 1 1092.9276 532.9824)" class="st3 st65">1-157</text>
		<rect x="1335.7" y="404.5" class="st1" width="3" height="69"/>
		<rect x="1385.5" y="210" class="st1" width="61" height="3"/>
		<rect x="1385.5" y="84.6" class="st1" width="28.8" height="3"/>
		<rect x="1477.5" y="330.6" class="st1" width="60" height="3"/>
		<rect x="1477.5" y="363" class="st1" width="60" height="3"/>
		<text transform="matrix(0.7641 0 0 1 1498.623 727.792)" class="st3 st66">1-170</text>
		<text transform="matrix(0.7641 0 0 1 1497.7812 643.8989)" class="st3 st31">1-171</text>
		<rect x="1477.7" y="541.5" class="st1" width="59.8" height="3"/>
		<text transform="matrix(0.7641 0 0 1 1497.79 456.5063)" class="st3 st31">1-177</text>
		<text transform="matrix(0.7641 0 0 1 1497.7822 381.7007)" class="st3 st67">1-177/2</text>
		<rect x="1493.1" y="839.5" class="st1" width="3" height="57"/>
		<text transform="matrix(0.7641 0 0 1 1459.7581 872.1836)" class="st3 st68">1-166</text>
		<rect x="95.5" y="149.9" class="st1" width="3" height="26.6"/>
		<rect x="95.5" y="122.5" class="st1" width="3" height="11"/>
		<rect x="217.5" y="61.6" class="st1" width="53" height="3"/>
		<text transform="matrix(0.9 0 0 1 235.0376 77.5)" class="st3 st69">1-118</text>
		<text transform="matrix(0.9 0 0 1 191.8407 78.9893)" class="st3 st69">1-116</text>
		<rect x="127.5" y="604.2" class="st1" width="59" height="3"/>
		<rect x="127.5" y="537" class="st1" width="59" height="3"/>
		<text transform="matrix(0.9 0 0 1 144.3574 555.107)" class="st3 st70">1-128</text>
		<text transform="matrix(0.9 0 0 1 143.4326 625.9307)" class="st3 st71">1-130а</text>
		<rect x="254.9" y="504.9" class="st1" width="3" height="58.3"/>
		<text transform="matrix(0.9 0 0 1 265.9033 537)" class="st3 st72">1-142</text>
		<rect x="667.8" y="316.7" class="st1" width="7" height="84.8"/>
		<rect x="674.8" y="316.7" class="st1" width="21.2" height="7"/>
		
			<rect x="713.4" y="313.1" transform="matrix(0.9187 -0.395 0.395 0.9187 -89.8086 313.6721)" class="st73" width="7" height="123.8"/>
		<text transform="matrix(0.8484 0 0 1 696.0752 401.5)" class="st3 st61">1-101а</text>
		<rect x="1411.3" y="19.5" class="st1" width="3" height="49.5"/>
		<rect x="1491.9" y="155.4" class="st1" width="21.6" height="3"/>
		<text transform="matrix(0.7641 0 0 1 1486.5596 135.2041)" class="st3 st74">1-179</text>
		<rect x="1477.5" y="473.6" class="st1" width="60" height="3"/>
		<text transform="matrix(0.7641 0 0 1 1497.7812 349.9507)" class="st3 st75">1-177/3</text>
	</g>
	<rect x="1474.5" y="118.5" class="st1" width="3" height="25"/>
</g>
</svg>
