<?xml version="1.0" encoding="utf-8"?>
<!-- Generator: Adobe Illustrator 27.0.0, SVG Export Plug-In . SVG Version: 6.00 Build 0)  -->
<svg version="1.1" id="Слой_1" xmlns="http://www.w3.org/2000/svg" xmlns:xlink="http://www.w3.org/1999/xlink" width="1400" height="925" x="0px" y="0px"
	 viewBox="0 0 1678.9 925.1" style="enable-background:new 0 0 1678.9 925.1;" xml:space="preserve">
<g id="Слой_2_00000013167293274023752980000018160513616036727993_">
	<rect class="st0" width="1678.9" height="925.1"/>
</g>
<g id="Слой_1_00000153699026064774283320000006926203741397764996_">
	<g id="_Слой_2">
		<rect x="3.5" y="25.5" class="st1" width="7" height="198"/>
		<rect x="10.5" y="216.5" class="st1" width="179" height="7"/>
		<rect x="10.5" y="25.5" class="st1" width="267" height="7"/>
		<rect x="270.5" y="32.5" class="st1" width="7" height="336"/>
		<rect x="214.5" y="361.5" class="st1" width="56" height="7"/>
		<rect x="120.5" y="223.5" class="st1" width="7" height="520"/>
		<rect x="42.5" y="743.5" class="st1" width="147" height="7"/>
		<rect x="42.5" y="750.5" class="st1" width="7" height="153"/>
		<rect x="49.5" y="896.5" class="st1" width="235" height="7"/>
		<rect x="277.5" y="569.5" class="st1" width="7" height="327"/>
		<g>
			<rect x="215" y="563" class="st2" width="445.5" height="6"/>
			<path d="M660,563.5v5H215.5v-5H660 M661,562.5H214.5v7H661V562.5L661,562.5z"/>
		</g>
		<rect x="217.5" y="401.5" class="st1" width="468" height="7"/>
		<rect x="257.5" y="368.5" class="st1" width="7" height="33"/>
		<rect x="10.5" y="150.5" class="st1" width="179" height="3"/>
		<rect x="10.5" y="122.5" class="st1" width="179" height="3"/>
		<rect x="186.5" y="32.5" class="st1" width="3" height="90"/>
		<rect x="214.5" y="32.5" class="st1" width="3" height="90"/>
		<rect x="217.5" y="119.5" class="st1" width="53" height="3"/>
		<rect x="186.5" y="153.5" class="st1" width="3" height="63"/>
		<rect x="214.5" y="151.5" class="st1" width="56" height="3"/>
		<rect x="214.5" y="122.5" class="st1" width="3" height="29"/>
		<rect x="214.5" y="154.5" class="st1" width="3" height="207"/>
		<rect x="217.5" y="214.5" class="st1" width="53" height="3"/>
		<rect x="186.5" y="223.5" class="st1" width="3" height="520"/>
		<rect x="127.5" y="708.7" class="st1" width="59" height="3"/>
		<rect x="127.5" y="663.8" class="st1" width="59" height="3"/>
		<rect x="127.5" y="478" class="st1" width="59" height="3"/>
		<rect x="128.5" y="389" class="st1" width="58" height="3"/>
		<rect x="128" y="351.5" class="st1" width="58" height="3"/>
		<rect x="127.5" y="310.4" class="st1" width="59" height="3"/>
		<rect x="186.5" y="750.5" class="st1" width="3" height="61"/>
		<rect x="217.5" y="747.5" class="st1" width="60" height="3"/>
		<text transform="matrix(0.9 0 0 1 123.1836 107.7515)" class="st3 st4">1-219</text>
		<text transform="matrix(0.9 0 0 1 24.6538 110.9351)" class="st3 st4">1-219а</text>
		<text transform="matrix(0.9 0 0 1 32.9395 188.4189)" class="st3 st5">1-220</text>
		<text transform="matrix(0.4991 0 0 1 233.8257 51.2417)" class="st3 st6">1-218</text>
		<text transform="matrix(0.9 0 0 1 223.897 107.7515)" class="st3 st4">1-216</text>
		<text transform="matrix(0.9 0 0 1 225.5591 185.5)" class="st3 st4">1-215</text>
		<text transform="matrix(0.9 0 0 1 227.2212 240.6831)" class="st3 st4">1-213</text>
		<text transform="matrix(0.9 0 0 1 134.332 264.0581)" class="st3 st4">1-223</text>
		<text transform="matrix(0.9 0 0 1 137.0996 336.1567)" class="st3 st4">1-225</text>
		<text transform="matrix(0.9 0 0 1 135.5322 377.3472)" class="st3 st4">1-225</text>
		<text transform="matrix(0.9 0 0 1 135.5322 468.7266)" class="st3 st4">1-228а</text>
		<rect x="214.5" y="369.5" class="st1" width="3" height="107"/>
		<rect x="214.5" y="501.5" class="st1" width="3" height="61"/>
		<rect x="214.5" y="569.5" class="st1" width="3" height="267"/>
		<rect x="50.5" y="836.5" class="st1" width="227" height="3"/>
		<rect x="172.5" y="839.5" class="st1" width="3" height="57"/>
		<rect x="49.5" y="808.5" class="st1" width="139" height="3"/>
		<rect x="96.5" y="751.5" class="st1" width="3" height="57"/>
		<rect x="145.5" y="750.5" class="st1" width="3" height="58"/>
		<text transform="matrix(0.9 0 0 1 133.8701 535.5)" class="st3 st4">1-427</text>
		<text transform="matrix(0.9 0 0 1 132.208 693.6748)" class="st3 st4">1-229а</text>
		<text transform="matrix(0.9 0 0 1 133.8701 729.6328)" class="st3 st4">1-230</text>
		<text transform="matrix(0.9 0 0 1 153.2168 781.9561)" class="st3 st7">1-230а</text>
		<text transform="matrix(0.9 0 0 1 55.2109 871.0576)" class="st3 st4">1-231</text>
		<text transform="matrix(0.5873 0 0 1 185.2227 870.8252)" class="st3 st8">1-234</text>
		<text transform="matrix(0.9 0 0 1 230.6753 872.8203)" class="st3 st4">1-234</text>
		<text transform="matrix(0.9 0 0 1 229.1099 632.0713)" class="st3 st4">1-240</text>
		<g>
			<rect x="660.5" y="501.5" class="st2" width="6" height="83"/>
			<path d="M666,502v82h-5v-82H666 M667,501h-7v84h7V501L667,501z"/>
		</g>
		<rect x="467.5" y="504.5" class="st1" width="3" height="58.3"/>
		<rect x="502" y="504.5" class="st1" width="3" height="58.3"/>
		<rect x="587.7" y="504.5" class="st1" width="3" height="58"/>
		<rect x="621.5" y="504.5" class="st1" width="3" height="58"/>
		<rect x="678.5" y="408.5" class="st1" width="7" height="68"/>
		<rect x="217.5" y="501.5" class="st1" width="443" height="3"/>
		<rect x="217.5" y="473.5" class="st1" width="461" height="3"/>
		<rect x="290.5" y="408.5" class="st1" width="3" height="65"/>
		<rect x="467.5" y="407.8" class="st1" width="3" height="65"/>
		<rect x="625.8" y="408.5" class="st1" width="3" height="65"/>
		<rect x="666.5" y="577.5" class="st1" width="350" height="7"/>
		<rect x="1009.5" y="501.5" class="st1" width="7" height="76"/>
		<rect x="666.5" y="501.5" class="st1" width="343" height="3"/>
		<rect x="785.1" y="504.5" class="st1" width="3" height="73"/>
		<rect x="879.4" y="504.5" class="st1" width="3" height="73"/>
		<rect x="685.5" y="433.5" class="st1" width="299" height="3"/>
		<rect x="743.5" y="346.5" class="st1" width="7" height="87"/>
		<rect x="743.5" y="339.5" class="st1" width="182" height="7"/>
		<rect x="918.5" y="346.5" class="st1" width="7" height="87"/>
		<rect x="1016.5" y="557.5" class="st1" width="433" height="7"/>
		<rect x="1446.5" y="501.5" class="st1" width="3" height="56"/>
		<rect x="1016.5" y="501.5" class="st1" width="430" height="3"/>
		<rect x="1051" y="504.5" class="st1" width="3" height="19.2"/>
		<rect x="1193.5" y="504.5" class="st1" width="3" height="53"/>
		<rect x="1266.5" y="504.5" class="st1" width="3" height="53"/>
		<rect x="1360.2" y="504.5" class="st1" width="3" height="53"/>
		<rect x="983.5" y="397.5" class="st1" width="7" height="39"/>
		<rect x="990.5" y="397.5" class="st1" width="459" height="7"/>
		<rect x="987.5" y="436.5" class="st1" width="3" height="40"/>
		<rect x="990.5" y="473.5" class="st1" width="459" height="3"/>
		<rect x="1446.5" y="404.5" class="st1" width="3" height="69"/>
		<rect x="1379" y="404.6" class="st1" width="3" height="69"/>
		<rect x="1193.5" y="404.5" class="st1" width="3" height="69"/>
		<rect x="1158.1" y="404.5" class="st1" width="3" height="69"/>
		<rect x="1378.5" y="12.5" class="st1" width="7" height="344"/>
		<rect x="1385.5" y="349.5" class="st1" width="64" height="7"/>
		<rect x="1401.5" y="356.5" class="st1" width="7" height="41"/>
		<rect x="1446.5" y="356.5" class="st1" width="3" height="41"/>
		<rect x="1474.5" y="350.5" class="st1" width="3" height="461"/>
		<rect x="1446.5" y="118.5" class="st1" width="3" height="231"/>
		<rect x="1474.5" y="115.5" class="st1" width="179" height="3"/>
		<rect x="1474.5" y="143.5" class="st1" width="179" height="3"/>
		<rect x="1385.5" y="12.5" class="st1" width="275" height="7"/>
		<rect x="1653.5" y="19.5" class="st1" width="7" height="194"/>
		<rect x="1474.5" y="206.5" class="st1" width="179" height="7"/>
		<rect x="1474.5" y="213.5" class="st1" width="3" height="137"/>
		<rect x="1474.5" y="146.5" class="st1" width="3" height="60"/>
		<rect x="1474.5" y="19.5" class="st1" width="3" height="96"/>
		<rect x="1446.5" y="19.5" class="st1" width="3" height="99"/>
		<rect x="1385.5" y="117" class="st1" width="61" height="3"/>
		<rect x="1385.5" y="143.5" class="st1" width="61" height="3"/>
		<rect x="1385.5" y="311" class="st1" width="61" height="3"/>
		<rect x="1478.3" y="311" class="st1" width="60" height="3"/>
		<rect x="1537.5" y="213.5" class="st1" width="7" height="535"/>
		<rect x="1513.5" y="146.5" class="st1" width="3" height="60"/>
		<rect x="1385.5" y="80.4" class="st1" width="61" height="3"/>
		<rect x="1378.5" y="564.5" class="st1" width="7" height="339"/>
		<rect x="1385.5" y="896.5" class="st1" width="234" height="7"/>
		<rect x="1612.5" y="748.5" class="st1" width="7" height="148"/>
		<rect x="1544.5" y="741.5" class="st1" width="75" height="7"/>
		<rect x="1446.5" y="564.5" class="st1" width="3" height="332"/>
		<rect x="1385.5" y="790.4" class="st1" width="61" height="3"/>
		<rect x="1385.5" y="604.2" class="st1" width="61" height="3"/>
		<rect x="1477.5" y="421.5" class="st1" width="60" height="3"/>
		<rect x="1477.5" y="458.7" class="st1" width="60" height="3"/>
		<rect x="1477.5" y="499" class="st1" width="20.9" height="3"/>
		<rect x="1477.5" y="541" class="st1" width="60" height="3"/>
		<rect x="1477.5" y="572.5" class="st1" width="60" height="3"/>
		<rect x="1477.5" y="745.5" class="st1" width="60" height="3"/>
		<rect x="1477.5" y="808.5" class="st1" width="134" height="3"/>
		<rect x="1512.3" y="748.5" class="st1" width="3" height="60"/>
		<rect x="1582" y="748.5" class="st1" width="3" height="60"/>
		<rect x="1449.5" y="836.5" class="st1" width="163" height="3"/>
		<rect x="1480.1" y="839.5" class="st1" width="3" height="10.7"/>
		<rect x="1522.5" y="839.5" class="st1" width="3" height="57"/>
		<text transform="matrix(0.8247 0 0 1 100 187.1099)" class="st3 st9">1-220а</text>
		<text transform="matrix(0.7509 0 0 1 139.3511 197.8091)" class="st3 st10">1-222а</text>
		<text transform="matrix(0.9 0 0 1 236.5718 538.5)" class="st3 st11">1-240а</text>
		<text transform="matrix(0.9 0 0 1 315.8101 536.2598)" class="st3 st12">1-241</text>
		<text transform="matrix(1 0 0 1 109.82 780.54)" class="st3 st13">с/у</text>
		<text transform="matrix(1 0 0 1 229.11 389.05)" class="st3 st13">с/у</text>
		<text transform="matrix(0.81 0 0 1 220.25 437.8203)" class="st3 st14">Ле</text>
		<text transform="matrix(0.81 0 0 1 231.5171 437.8203)" class="st3 st14">с</text>
		<text transform="matrix(0.81 0 0 1 236.2959 437.8203)" class="st3 st14">т</text>
		<text transform="matrix(0.81 0 0 1 240.4512 437.8203)" class="st3 st14">ница/ли</text>
		<text transform="matrix(0.81 0 0 1 276.8447 437.8203)" class="st3 st14">ф</text>
		<text transform="matrix(0.81 0 0 1 283.3975 437.8203)" class="st3 st14">т</text>
		<text transform="matrix(0.98 0 0 1 223.8003 138.25)" class="st3 st15">Ле</text>
		<text transform="matrix(0.98 0 0 1 235.5996 138.25)" class="st3 st15">с</text>
		<text transform="matrix(0.98 0 0 1 240.5972 138.25)" class="st3 st15">т</text>
		<text transform="matrix(0.98 0 0 1 244.9585 138.25)" class="st3 st15">ница</text>
		<text transform="matrix(0.68 0 0 1 55.1299 780.6904)" class="st3 st16">Ле</text>
		<text transform="matrix(0.68 0 0 1 64.9902 780.6904)" class="st3 st16">с</text>
		<text transform="matrix(0.68 0 0 1 69.165 780.6904)" class="st3 st16">т</text>
		<text transform="matrix(0.68 0 0 1 72.8032 780.6904)" class="st3 st16">ница</text>
		<text transform="matrix(0.9 0 0 1 301.9771 443.0674)" class="st3 st17">1-210</text>
		<rect x="503.5" y="408.5" class="st1" width="3" height="65"/>
		<text transform="matrix(0.8484 0 0 1 477.2529 444.5566)" class="st3 st18">1-206</text>
		<text transform="matrix(0.9 0 0 1 560.4009 445.6982)" class="st3 st19">1-204</text>
		<text transform="matrix(0.859 0 0 1 471.4541 535.7832)" class="st3 st20">1-243</text>
		<text transform="matrix(0.7641 0 0 1 514.2451 537.6582)" class="st3 st21">1-246</text>
		<text transform="matrix(0.7641 0 0 1 594.6201 537.5176)" class="st3 st22">1-248</text>
		<text transform="matrix(0.7641 0 0 1 627.6636 537.6582)" class="st3 st21">1-249</text>
		<text transform="matrix(0.7641 0 0 1 723.2793 546.2773)" class="st3 st21">1-251</text>
		<text transform="matrix(0.7641 0 0 1 822.3301 546.2773)" class="st3 st21">1-250</text>
		<text transform="matrix(0.7641 0 0 1 806.8662 392.5)" class="st3 st21">Лестница</text>
		<text transform="matrix(0.7641 0 0 1 927.8115 541)" class="st3 st21">1-252</text>
		<text transform="matrix(0.7641 0 0 1 1007.7119 440.4326)" class="st3 st21">1-299</text>
		<text transform="matrix(0.7641 0 0 1 1060.5566 441.6387)" class="st3 st21">1-298</text>
		<text transform="matrix(0.6977 0 0 1 1022.0742 533.668)" class="st3 st23">1-253</text>
		<text transform="matrix(0.7641 0 0 1 1058.0918 533.835)" class="st3 st21">1-254</text>
		<text transform="matrix(0.7641 0 0 1 1094.9707 534.002)" class="st3 st21">1-255</text>
		<rect x="1230" y="404.5" class="st1" width="3" height="69"/>
		<rect x="1125.1" y="504.5" class="st1" width="3" height="53"/>
		<text transform="matrix(0.7641 0 0 1 1128.6426 440.4336)" class="st3 st21">1-296</text>
		<text transform="matrix(0.7641 0 0 1 1162.4814 439)" class="st3 st21">1-295</text>
		<text transform="matrix(0.7641 0 0 1 1201.6982 443.0674)" class="st3 st21">1-294</text>
		<text transform="matrix(0.7641 0 0 1 1217.3105 533.668)" class="st3 st21">1-257</text>
		<text transform="matrix(0.7641 0 0 1 1235.0898 443.2344)" class="st3 st21">1-293</text>
		<text transform="matrix(0.7641 0 0 1 1309.2344 441.6387)" class="st3 st21">1-292</text>
		<text transform="matrix(0.7641 0 0 1 1306.4551 535.5)" class="st3 st21">1-257а</text>
		<text transform="matrix(0.7641 0 0 1 1364.9658 534.002)" class="st3 st24">1-258</text>
		<text transform="matrix(0.7641 0 0 1 1396.4951 535.5)" class="st3 st25">1-259</text>
		<text transform="matrix(0.6796 0 0 1 1384.0166 445.498)" class="st3 st26">Лестница/лифт</text>
		<text transform="matrix(0.7641 0 0 1 1397.709 592.54)" class="st3 st21">1-260а</text>
		<text transform="matrix(0.7641 0 0 1 1397.8887 633.9209)" class="st3 st21">1-261</text>
		<text transform="matrix(0.7641 0 0 1 1396.4951 709.4717)" class="st3 st21">1-262</text>
		<text transform="matrix(0.7641 0 0 1 1397.6445 781.9561)" class="st3 st21">1-264</text>
		<text transform="matrix(0.7641 0 0 1 1397.6445 820.1113)" class="st3 st21">1-265</text>
		<rect x="1385.5" y="732.5" class="st1" width="61" height="3"/>
		<rect x="1385.5" y="670.8" class="st1" width="61" height="3"/>
		<text transform="matrix(0.7641 0 0 1 1489.8447 885.1768)" class="st3 st21">1-266</text>
		<text transform="matrix(0.7641 0 0 1 1550.4521 871.8496)" class="st3 st21">1-267</text>
		<text transform="matrix(0.7641 0 0 1 1481.6416 783.5)" class="st3 st21">1-267а</text>
		<text transform="matrix(0.7641 0 0 1 1541 783.5)" class="st3 st21">с/y</text>
		<text transform="matrix(0.5384 0 0 1 1587.667 779.9072)" class="st3 st27">Лестница</text>
		<text transform="matrix(0.7641 0 0 1 1494.6494 647.2139)" class="st3 st21">1-274</text>
		<text transform="matrix(0.7641 0 0 1 1494.6494 561)" class="st3 st21">1-276</text>
		<text transform="matrix(0.7641 0 0 1 1490.7451 529.5)" class="st3 st21">1-277</text>
		<text transform="matrix(0.7641 0 0 1 1492.4512 485.1094)" class="st3 st21">1-277</text>
		<text transform="matrix(0.7641 0 0 1 1490.7451 409.3271)" class="st3 st21">1-279</text>
		<text transform="matrix(0.7641 0 0 1 1488.8369 333.6182)" class="st3 st21">1-281</text>
		<text transform="matrix(0.7641 0 0 1 1491.8945 296.106)" class="st3 st21">1-282</text>
		<text transform="matrix(0.7641 0 0 1 1421.9365 381.7007)" class="st3 st21">с/у</text>
		<text transform="matrix(0.7641 0 0 1 1405 332.1587)" class="st3 st21">1-291</text>
		<text transform="matrix(0.7641 0 0 1 1397.8887 260.0327)" class="st3 st21">1-290</text>
		<text transform="matrix(0.7641 0 0 1 1402.4863 168.4126)" class="st3 st21">1-288</text>
		<text transform="matrix(0.7641 0 0 1 1391.8066 34.3193)" class="st3 st21">1-286</text>
		<text transform="matrix(0.5384 0 0 1 1402.8203 133.501)" class="st3 st28">Лестница</text>
		<text transform="matrix(0.7641 0 0 1 1544.5 70.5518)" class="st3 st21">1-284</text>
		<rect x="1052.2" y="404.5" class="st1" width="3" height="69"/>
		<rect x="1123.5" y="404.5" class="st1" width="3" height="69"/>
		<rect x="1385.5" y="180.1" class="st1" width="61" height="3"/>
		<text transform="matrix(0.7641 0 0 1 1481.6416 178.4302)" class="st3 st21">1-283а</text>
		<text transform="matrix(0.7641 0 0 1 1575.4639 176.5)" class="st3 st21">1-283</text>
		<text transform="matrix(0.7641 0 0 1 1587.667 135.2402)" class="st3 st21">1-284а</text>
		<text transform="matrix(0.7641 0 0 1 1401.042 103.3955)" class="st3 st21">1-287</text>
		<rect x="95.5" y="153.5" class="st1" width="3" height="63"/>
		<text transform="matrix(0.9 0 0 1 137.0996 585.4541)" class="st3 st4">касса</text>
		<rect x="217.5" y="642.1" class="st1" width="60" height="3"/>
		<text transform="matrix(0.9 0 0 1 223.897 688.9902)" class="st3 st4">1-238</text>
		<rect x="290.5" y="504.5" class="st1" width="3" height="58.3"/>
		<rect x="357.6" y="504.5" class="st1" width="3" height="58.3"/>
		<text transform="matrix(0.7641 0 0 1 405.2988 546.2773)" class="st3 st21">1-242</text>
		<rect x="592.6" y="408.5" class="st1" width="3" height="65"/>
		<rect x="546" y="408.5" class="st1" width="3" height="65"/>
		<rect x="360.6" y="408.5" class="st1" width="3" height="65"/>
		<text transform="matrix(0.9 0 0 1 410.6416 428.4082)" class="st3 st29">1-208</text>
		<text transform="matrix(0.8484 0 0 1 518.5049 445.498)" class="st3 st30">1-205</text>
		<text transform="matrix(0.9 0 0 1 599.312 444.4443)" class="st3 st31">1-203</text>
		<text transform="matrix(0.8484 0 0 1 637.2954 443.0674)" class="st3 st32">1-202</text>
		<rect x="87.1" y="125.5" class="st1" width="3" height="24.8"/>
		<rect x="217.5" y="81.3" class="st1" width="53" height="3"/>
		<rect x="132.4" y="153.5" class="st1" width="3" height="63"/>
		<rect x="87.1" y="84.3" class="st1" width="3" height="38.2"/>
		<rect x="10.5" y="84.3" class="st1" width="76.6" height="3"/>
		<rect x="135.5" y="170.2" class="st1" width="51" height="3"/>
		<text transform="matrix(0.6212 0 0 1 155.6279 165.4639)" class="st3 st33">1-220</text>
		<text transform="matrix(0.9 0 0 1 26.3159 143.5283)" class="st3 st4">1-221</text>
		<rect x="127.5" y="500" class="st1" width="59" height="3"/>
		<rect x="127.5" y="564.5" class="st1" width="59" height="3"/>
		<text transform="matrix(0.9 0 0 1 137.0996 655.8896)" class="st3 st4">1-229</text>
		<rect x="127.5" y="589.5" class="st1" width="28.1" height="3"/>
		<rect x="152.6" y="592.5" class="st1" width="3" height="22.7"/>
		<text transform="matrix(0.7957 0 0 1 132.208 601.9395)" class="st3 st34">1-229</text>
		<rect x="96.5" y="839.5" class="st1" width="3" height="57"/>
		<rect x="145.5" y="839.5" class="st1" width="3" height="57"/>
		<rect x="214.5" y="839.5" class="st1" width="3" height="57"/>
		<text transform="matrix(0.5873 0 0 1 150.9375 870.9414)" class="st3 st8">1-234</text>
		<rect x="217.5" y="808.5" class="st1" width="60" height="3"/>
		<rect x="217.5" y="612" class="st1" width="30" height="2.4"/>
		<text transform="matrix(0.9 0 0 1 230.772 592.54)" class="st3 st4">1-240</text>
		<text transform="matrix(0.9 0 0 1 226.0298 783.5)" class="st3 st4">1-236</text>
		<text transform="matrix(0.9 0 0 1 226.0298 831.0098)" class="st3 st4">1-235</text>
		<text transform="matrix(0.9 0 0 1 102.6919 873.0254)" class="st3 st4">1-232</text>
		<rect x="398.5" y="523" class="st1" width="3" height="39.8"/>
		<rect x="438" y="523" class="st1" width="3" height="39.8"/>
		<rect x="398.5" y="504.5" class="st1" width="3" height="7.3"/>
		<rect x="438" y="504.5" class="st1" width="3" height="7.3"/>
		<rect x="546" y="504.7" class="st1" width="3" height="58.3"/>
		<text transform="matrix(0.7641 0 0 1 554.1499 537.1836)" class="st3 st21">1-247</text>
		<rect x="398.5" y="408.5" class="st1" width="3" height="39.8"/>
		<rect x="438" y="408.5" class="st1" width="3" height="39.8"/>
		<rect x="398.5" y="466.2" class="st1" width="3" height="7.3"/>
		<rect x="438" y="466.2" class="st1" width="3" height="7.3"/>
		<text transform="matrix(0.9 0 0 1 372.8486 430.1045)" class="st3 st29">1-208</text>
		<text transform="matrix(0.9 0 0 1 447.1963 430.1904)" class="st3 st29">1-208</text>
		<rect x="327.1" y="408.7" class="st1" width="3" height="64.8"/>
		<text transform="matrix(0.9 0 0 1 334.9629 444.3604)" class="st3 st17">1-209</text>
		<rect x="658.5" y="408.5" class="st1" width="3" height="65"/>
		<text transform="matrix(0.8484 0 0 1 664.1621 441)" class="st3 st35">1-201</text>
		<rect x="217.5" y="296.7" class="st1" width="53" height="3"/>
		<text transform="matrix(0.9 0 0 1 227.2212 333.6182)" class="st3 st4">1-211</text>
		<rect x="127.5" y="444.2" class="st1" width="59" height="3"/>
		<text transform="matrix(0.9 0 0 1 137.1943 407.7998)" class="st3 st4">1-227</text>
		<rect x="127.5" y="417.7" class="st1" width="59" height="3"/>
		<text transform="matrix(0.9 0 0 1 135.5317 436.5137)" class="st3 st4">1-228</text>
		<rect x="689.2" y="504.5" class="st1" width="3" height="17.4"/>
		<rect x="689.2" y="535" class="st1" width="3" height="42.1"/>
		<rect x="1051" y="538.5" class="st1" width="3" height="19"/>
		<rect x="1090.4" y="504.5" class="st1" width="3" height="19.2"/>
		<rect x="1090.4" y="538.4" class="st1" width="3" height="19.2"/>
		<rect x="1421.4" y="504.5" class="st1" width="3" height="53"/>
		<rect x="1391.6" y="504.5" class="st1" width="3" height="53"/>
		<text transform="matrix(0.7641 0 0 1 1427.5234 533.668)" class="st3 st36">1-260</text>
		<text transform="matrix(0.7641 0 0 1 1147.1543 534.1689)" class="st3 st21">1-256</text>
		<rect x="1091.9" y="404.5" class="st1" width="3" height="69"/>
		<text transform="matrix(0.7641 0 0 1 1097.002 440.3301)" class="st3 st37">1-297</text>
		<rect x="1265" y="404.5" class="st1" width="3" height="69"/>
		<rect x="1385.5" y="210" class="st1" width="61" height="3"/>
		<text transform="matrix(0.7641 0 0 1 1399.0371 199.8525)" class="st3 st21">1-289</text>
		<text transform="matrix(0.7641 0 0 1 1388.8037 67.5)" class="st3 st21">1-286</text>
		<rect x="1385.5" y="42.7" class="st1" width="33.1" height="3"/>
		<rect x="1564" y="118.5" class="st1" width="3" height="25"/>
		<rect x="1477.5" y="349" class="st1" width="60" height="3"/>
		<rect x="1477.5" y="384.6" class="st1" width="60" height="3"/>
		<rect x="1516.3" y="499" class="st1" width="21.2" height="3"/>
		<rect x="1477.5" y="696.5" class="st1" width="60" height="3"/>
		<rect x="1477.5" y="714.3" class="st1" width="23" height="3"/>
		<rect x="1497.5" y="699.5" class="st1" width="3" height="14.8"/>
		<rect x="1514.5" y="714.3" class="st1" width="23" height="3"/>
		<text transform="matrix(0.7641 0 0 1 1513.7998 708.2393)" class="st3 st38">1-270</text>
		<text transform="matrix(0.7641 0 0 1 1481.6416 707.291)" class="st3 st39">1-271</text>
		<text transform="matrix(0.7641 0 0 1 1488.2686 737.3975)" class="st3 st21">1-270</text>
		<rect x="1477.5" y="662.3" class="st1" width="60" height="3"/>
		<rect x="1476" y="622.4" class="st1" width="61.5" height="3"/>
		<text transform="matrix(0.7641 0 0 1 1489.418 605.7002)" class="st3 st21">1-275</text>
		<text transform="matrix(0.7641 0 0 1 1493.6006 680.8203)" class="st3 st21">1-273</text>
		<text transform="matrix(0.7641 0 0 1 1498.3594 444.5566)" class="st3 st21">1-278</text>
		<text transform="matrix(0.7641 0 0 1 1495.7988 374.4697)" class="st3 st21">1-280</text>
		<rect x="1479.8" y="865.3" class="st1" width="3" height="31.2"/>
		<rect x="1468.8" y="865.3" class="st1" width="11" height="3"/>
		<rect x="1449.5" y="865.3" class="st1" width="10.5" height="3"/>
		<text transform="matrix(0.7641 0 0 1 1450.4131 887.1094)" class="st3 st21">1-266</text>
	</g>
	<rect x="1474.5" y="118.5" class="st1" width="3" height="25"/>
</g>
</svg>
